<?xml version="1.0" encoding="UTF-8"?>
<svg id="_レイヤー_1" data-name="レイヤー 1" xmlns="http://www.w3.org/2000/svg" viewBox="0 0 15.32 51.99">
  <defs>
    <style>
      .cls-1 {
        fill: #fff;
      }
    </style>
  </defs>
  <path class="cls-1" d="M7.68,51.99c-.39,0-.72-.14-.99-.41-.27-.27-.41-.6-.41-.99V15.26H2.19c-1.01,0-1.68-.29-1.99-.88-.31-.58-.25-1.31.18-2.16L5.87,1.35c.47-.9,1.07-1.35,1.81-1.35s1.32.45,1.75,1.35l5.5,10.88c.43.86.5,1.58.21,2.16-.29.58-.97.88-2.02.88h-3.98v35.32c0,.39-.14.72-.41.99s-.62.41-1.05.41Z"/>
</svg>