<?xml version="1.0" encoding="UTF-8"?>
<svg id="_ロゴ" data-name="ロゴ" xmlns="http://www.w3.org/2000/svg" viewBox="0 0 95.48 95.17">
  <defs>
    <style>
      .cls-1 {
        fill: #fff;
      }

      .cls-2 {
        opacity: .88;
      }

      .cls-3 {
        fill: none;
      }

      .cls-3, .cls-4 {
        stroke: #fff;
        stroke-miterlimit: 10;
        stroke-width: 3px;
      }

      .cls-4 {
        fill: #c1272d;
      }
    </style>
  </defs>
  <path class="cls-3" d="M71.68,19.93C57.13,3.92,25.79,6.18,14.17,27.76c-11.62,21.58-19.09,48.97-4.98,62.24,14.11,13.28,59.23-12.94,69.27-24.49,9.7-11.15,7.76-29.58-6.79-45.59Z"/>
  <path class="cls-4" d="M93.05,38.82l-11.46-5.84c-1.63-.83-3.53.46-3.37,2.27l.66,7.48c.06.66-.81.96-1.17.4l-8.28-12.88c-.39-.6-1.11-.9-1.81-.76l-11.63,2.47c-.59.13-1.05-.53-.72-1.04l4.37-6.88c1.14-1.82,1.83-2.25.76-2.83l-13.13-6.44c-1.02-.55-.47-2.1.67-1.9l10.7,1.96c.54.1.94-.48.66-.95l-6.79-11.41c-.37-.62.42-1.28.96-.8l10.7,9.34c1.49,1.3,3.76,1.07,4.96-.5l4.17-5.48c.34-.45,1.05-.26,1.13.29l1.53,10.37c.24,1.62,1.45,2.92,3.05,3.27l12.67,2.78c.85.19.88,1.39.04,1.62l-9.4,2.58c-.48.13-.63.74-.26,1.08l11.7,10.77c.54.5-.06,1.37-.72,1.03Z"/>
  <ellipse class="cls-3" cx="71.75" cy="22.77" rx="2.35" ry="2.58" transform="translate(41.68 91.78) rotate(-84.06)"/>
  <g id="_種" data-name="種">
    <g class="cls-2">
      <path class="cls-1" d="M29.04,29.95c.68-.62,1.8-2.18,1.33-2.69s-2.36.21-3.03.83c-.68.62-.84,1.54-.37,2.05s1.4.43,2.08-.19Z"/>
      <path class="cls-1" d="M25.42,43.5c.68-.62,1.8-2.18,1.33-2.69s-2.36.21-3.03.83c-.68.62-.84,1.54-.37,2.05s1.4.43,2.08-.19Z"/>
      <path class="cls-1" d="M41.54,37.51c.68-.62,1.8-2.18,1.33-2.69s-2.36.21-3.03.83c-.68.62-.84,1.54-.37,2.05.47.51,1.4.43,2.08-.19Z"/>
    </g>
    <g class="cls-2">
      <path class="cls-1" d="M14.92,74.73c.68-.62,1.8-2.18,1.33-2.69s-2.36.21-3.03.83c-.68.62-.84,1.54-.37,2.05.47.51,1.4.43,2.08-.19Z"/>
      <path class="cls-1" d="M27.26,72.79c.68-.62,1.8-2.18,1.33-2.69s-2.36.21-3.03.83-.84,1.54-.37,2.05c.47.51,1.4.43,2.08-.19Z"/>
    </g>
    <g class="cls-2">
      <path class="cls-1" d="M46.56,65.83c.68-.62,1.8-2.18,1.33-2.69-.47-.51-2.36.21-3.03.83-.68.62-.84,1.54-.37,2.05s1.4.43,2.08-.19Z"/>
      <path class="cls-1" d="M58.9,63.89c.68-.62,1.8-2.18,1.33-2.69s-2.36.21-3.03.83-.84,1.54-.37,2.05,1.4.43,2.08-.19Z"/>
    </g>
    <g class="cls-2">
      <path class="cls-1" d="M47.36,75.31c.68-.62,1.8-2.18,1.33-2.69-.47-.51-2.36.21-3.03.83s-.84,1.54-.37,2.05,1.4.43,2.08-.19Z"/>
      <path class="cls-1" d="M28.43,59.94c.68-.62,1.8-2.18,1.33-2.69-.47-.51-2.36.21-3.03.83s-.84,1.54-.37,2.05,1.4.43,2.08-.19Z"/>
      <path class="cls-1" d="M16.56,53.58c.68-.62,1.8-2.18,1.33-2.69-.47-.51-2.36.21-3.03.83s-.84,1.54-.37,2.05,1.4.43,2.08-.19Z"/>
      <path class="cls-1" d="M76.57,55.31c.68-.62,1.8-2.18,1.33-2.69s-2.36.21-3.03.83-.84,1.54-.37,2.05c.47.51,1.4.43,2.08-.19Z"/>
      <path class="cls-1" d="M43.23,53.02c.68-.62,1.8-2.18,1.33-2.69s-2.36.21-3.03.83-.84,1.54-.37,2.05,1.4.43,2.08-.19Z"/>
      <path class="cls-1" d="M58.62,51.02c.68-.62,1.8-2.18,1.33-2.69s-2.36.21-3.03.83-.84,1.54-.37,2.05,1.4.43,2.08-.19Z"/>
      <path class="cls-1" d="M27.99,84.72c.68-.62,1.77-2.21,1.24-2.79s-2.48.08-3.16.69-.8,1.59-.27,2.17c.53.58,1.51.55,2.18-.07Z"/>
    </g>
  </g>
</svg>