<?xml version="1.0" encoding="UTF-8"?>
<svg id="_ロゴ" data-name="ロゴ" xmlns="http://www.w3.org/2000/svg" viewBox="0 0 114.76 43.18">
  <defs>
    <style>
      .cls-1, .cls-2 {
        fill: #fff;
      }

      .cls-3 {
        opacity: .88;
      }

      .cls-2 {
        stroke: #fff;
        stroke-linecap: round;
        stroke-miterlimit: 10;
        stroke-width: .25px;
      }
    </style>
  </defs>
  <g>
    <path class="cls-1" d="M5.28,15.03c.29.65,1.3.91,1.89.35s1.11-1.34.81-1.9-2-.21-2.43.05-.55.85-.26,1.5Z"/>
    <path class="cls-1" d="M4.81,14.21l.3.3s.12.02.13-.04l.06-.24s.04-.02.04,0l.13.49s.03.04.05.04l.39.04s.03.03.01.04l-.21.17c-.05.05-.08.05-.05.08l.34.34s0,.07-.04.05l-.32-.17s-.03,0-.03.02l.09.43s-.03.04-.04.02l-.24-.41c-.03-.06-.11-.07-.16-.04l-.19.13s-.04,0-.03-.02l.06-.34c0-.05-.02-.11-.06-.13l-.37-.22s-.01-.05.02-.05l.32.02s.03-.02.02-.03l-.25-.46s.02-.04.03-.02Z"/>
    <g class="cls-3">
      <path class="cls-1" d="M6.76,15.29s-.08.05-.07.08.08.02.11,0,.05-.04.03-.07-.04-.03-.07-.02Z"/>
      <path class="cls-1" d="M7.01,14.93s-.08.05-.07.08.08.02.11,0,.05-.04.03-.07-.04-.03-.07-.02Z"/>
      <path class="cls-1" d="M6.57,14.85s-.08.05-.07.08.08.02.11,0,.05-.04.03-.07-.04-.03-.07-.02Z"/>
    </g>
    <g class="cls-3">
      <path class="cls-1" d="M7.46,14.34s-.08.05-.07.08.08.02.11,0,.05-.04.03-.07-.04-.03-.07-.02Z"/>
      <path class="cls-1" d="M7.7,13.98s-.08.05-.07.08.08.02.11,0,.05-.04.03-.07-.04-.03-.07-.02Z"/>
      <path class="cls-1" d="M7.26,13.9s-.08.05-.07.08.08.02.11,0,.05-.04.03-.07-.04-.03-.07-.02Z"/>
    </g>
    <g class="cls-3">
      <path class="cls-1" d="M6.53,13.9s-.08.05-.07.08.08.02.11,0,.05-.04.03-.07-.04-.03-.07-.02Z"/>
      <path class="cls-1" d="M6.09,13.82s-.08.05-.07.08.08.02.11,0,.05-.04.03-.07-.04-.03-.07-.02Z"/>
    </g>
    <g class="cls-3">
      <path class="cls-1" d="M6.64,13.55s-.08.05-.07.08.08.02.11,0,.05-.04.03-.07-.04-.03-.07-.02Z"/>
      <path class="cls-1" d="M6.95,14.26s-.08.05-.07.08.08.02.11,0,.05-.04.03-.07-.04-.03-.07-.02Z"/>
      <path class="cls-1" d="M7.45,14.68s-.08.05-.07.08.08.02.11,0,.05-.04.03-.07-.04-.03-.07-.02Z"/>
      <path class="cls-1" d="M5.43,13.89s-.08.05-.07.08.08.02.11,0,.05-.04.03-.07-.04-.03-.07-.02Z"/>
      <path class="cls-1" d="M6.54,14.37s-.08.05-.07.08.08.02.11,0,.05-.04.03-.07-.04-.03-.07-.02Z"/>
      <path class="cls-1" d="M6,14.26s-.08.05-.07.08.08.02.11,0,.05-.04.03-.07-.04-.03-.07-.02Z"/>
      <path class="cls-1" d="M7.44,13.5s-.08.05-.07.08.08.02.11,0,.05-.04.03-.07-.04-.03-.07-.02Z"/>
    </g>
    <ellipse class="cls-1" cx="5.31" cy="14.94" rx=".08" ry=".09" transform="translate(-10.49 13.62) rotate(-65.66)"/>
  </g>
  <path class="cls-1" d="M3.4,16.5s0,0,0,0c.03-.04.17-.26.3-.7.06.22.15.35.17.38,0,0,0,0,0,0,.03-.03.21-.21.39-.6.05-.11.12-.35.12-.35,0,0,.07-.39,0-.59l-.2-.48c-.07-.18-.24-.33-.34-.41s-.24-.19-.39-.25c-.39-.15-.63-.14-.67-.14,0,0,0,0,0,0,0,.03.02.18.11.37-.38-.2-.63-.25-.67-.26,0,0,0,0,0,0,0,.03.01.21.14.46,0,0,0,0,0,0-.42-.17-.67-.16-.72-.16,0,0,0,0,0,0,0,.03.02.18.11.38-.03,0-.05-.01-.08-.02-.23-.03-.58.05-.7.05,0,0,.12.11.17.21,0,.03-.2.04-.2.04l-.33.03s.06.13.19.26c-.37.11-.55.22-.59.24,0,0,0,0,0,0,.02.02.15.11.39.17-.32.15-.48.27-.51.29,0,0,0,0,0,0,.02.01.15.07.4.06.03,0,.06,0,.09,0-.32.13-.49.24-.52.26,0,0,0,0,0,0,.02.01.13.06.37.07-.27.18-.4.32-.43.34,0,0,0,0,0,0,.02,0,.16.04.42,0,.03,0,.06-.01.09-.02-.08.14-.11.22-.12.25,0,0,0,0,0,0,.02,0,.17-.02.4-.16.04-.02.07-.05.11-.07-.08.32-.07.51-.06.54,0,0,0,0,0,0,.03,0,.19-.07.38-.26-.02.23.02.36.02.39,0,0,0,0,0,0,.03-.01.16-.07.32-.22,0,.16.04.26.04.28,0,0,0,0,0,0,.03-.02.2-.14.43-.41-.02.24.03.38.04.41,0,0,0,0,0,0,.03-.02.24-.17.5-.52.02-.02.03-.05.05-.07.08.2.17.32.19.35,0,0,0,0,0,0,.03-.03.2-.19.37-.56.08.25.18.38.2.4Z"/>
  <path class="cls-1" d="M96.79,29.28s0,0,0,0c.03-.05.16-.35.25-.95.1.33.22.52.25.56,0,0,0,0,.01,0,.03-.04.21-.26.37-.81.04-.15.09-.48.09-.48,0,0,.03-.55-.09-.84l-.3-.72c-.11-.27-.33-.5-.45-.64s-.31-.31-.48-.41c-.47-.27-.74-.29-.79-.29,0,0,0,0,0,0,0,.05.05.26.18.55-.47-.34-.76-.45-.81-.47,0,0,0,0,0,0,0,.05.05.3.22.68,0,0,0,0,0,0-.5-.29-.8-.32-.85-.32,0,0,0,0,0,0,0,.05.05.26.18.55-.03-.01-.06-.03-.1-.04-.27-.08-.66-.01-.8-.02,0,0,.16.17.22.32,0,.04-.23.02-.23.02h-.37s.08.19.26.4c-.41.1-.61.24-.64.27,0,0,0,0,0,0,.03.03.18.17.47.29-.35.17-.52.32-.54.34,0,0,0,0,0,0,.03.02.18.11.47.13.03,0,.07,0,.1,0-.35.15-.53.28-.56.31,0,0,0,0,0,0,.02.02.16.11.44.15-.29.22-.42.4-.44.43,0,0,0,0,0,0,.03.01.19.08.48.04.03,0,.07-.01.1-.02-.07.19-.1.3-.1.33,0,0,0,0,0,0,.03,0,.2,0,.44-.18.04-.03.08-.06.11-.09-.05.45,0,.71,0,.76,0,0,0,0,0,0,.03,0,.21-.08.4-.32.01.33.07.52.08.56,0,0,0,0,0,0,.03-.01.18-.07.34-.27.03.23.08.38.09.41,0,0,0,0,0,0,.03-.03.21-.17.44-.52,0,.34.08.55.1.59,0,0,0,0,0,0,.04-.03.25-.21.51-.67.02-.03.03-.06.04-.1.12.3.24.48.26.52,0,0,0,0,.01,0,.03-.04.21-.25.35-.75.12.37.26.56.28.6Z"/>
  <path class="cls-1" d="M101.66,27.38s0,0,0,0c-.06.01-.38.08-.92.36.2-.28.29-.49.3-.53,0,0,0,0,0,0-.05,0-.34-.02-.87.18-.15.06-.44.22-.44.22,0,0-.46.3-.62.57l-.4.66c-.15.25-.21.56-.25.74s-.07.43-.04.63c.06.53.21.77.23.81,0,0,0,0,.01,0,.03-.03.18-.19.33-.47,0,.58.09.88.1.93,0,0,0,0,0,0,.04-.03.22-.22.42-.58,0,0,0,0,0,0,.06.58.21.84.24.88,0,0,0,0,.01,0,.03-.03.18-.19.34-.47,0,.03.02.07.03.1.1.26.38.54.45.66,0,0,.04-.23.13-.37.03-.02.15.17.15.17l.22.3s.1-.18.17-.45c.33.27.55.35.59.36,0,0,0,0,0,0,0-.04.03-.25-.04-.55.34.18.56.23.6.24,0,0,0,0,0,0,0-.03-.01-.21-.17-.46-.02-.03-.04-.06-.06-.08.33.19.54.26.58.27,0,0,0,0,0,0,0-.03,0-.19-.14-.44.35.1.57.1.61.1,0,0,0,0,0,0,0-.03-.05-.2-.25-.41-.02-.02-.05-.05-.07-.07.19-.05.3-.1.33-.11,0,0,0,0,0,0-.02-.02-.12-.15-.4-.25-.04-.01-.09-.03-.14-.04.39-.22.58-.41.61-.45,0,0,0,0,0,0-.03-.02-.18-.12-.49-.13.26-.21.38-.36.4-.4,0,0,0,0,0,0-.03-.02-.17-.1-.42-.12.17-.16.26-.29.28-.31,0,0,0,0,0,0-.04-.01-.26-.07-.68-.04.27-.21.39-.39.42-.43,0,0,0,0,0,0-.04-.01-.32-.08-.84-.01-.04,0-.07.01-.1.02.17-.27.25-.47.26-.52,0,0,0,0,0-.01-.05,0-.32-.02-.81.16.22-.32.3-.54.32-.58Z"/>
  <path class="cls-1" d="M101.13,33.27s0,0,0,0c-.06.01-.38.08-.92.36.2-.28.29-.49.3-.53,0,0,0,0,0,0-.05,0-.34-.02-.87.18-.15.06-.44.22-.44.22,0,0-.46.3-.62.57l-.4.66c-.15.25-.21.56-.25.74s-.07.43-.04.63c.06.53.21.77.23.81,0,0,0,0,.01,0,.03-.03.18-.19.33-.47,0,.58.09.88.1.93,0,0,0,0,0,0,.04-.03.22-.22.42-.58,0,0,0,0,0,0,.06.58.21.84.24.88,0,0,0,0,.01,0,.03-.03.18-.19.34-.47,0,.03.02.07.03.1.1.26.38.54.45.66,0,0,.04-.23.13-.37.03-.02.15.17.15.17l.22.3s.1-.18.17-.45c.33.27.55.35.59.36,0,0,0,0,0,0,0-.04.03-.25-.04-.55.34.18.56.23.6.24,0,0,0,0,0,0,0-.03-.01-.21-.17-.46-.02-.03-.04-.06-.06-.08.33.19.54.26.58.27,0,0,0,0,0,0,0-.03,0-.19-.14-.44.35.1.57.1.61.1,0,0,0,0,0,0,0-.03-.05-.2-.25-.41-.02-.02-.05-.05-.07-.07.19-.05.3-.1.33-.11,0,0,0,0,0,0-.02-.02-.12-.15-.4-.25-.04-.01-.09-.03-.14-.04.39-.22.58-.41.61-.45,0,0,0,0,0,0-.03-.02-.18-.12-.49-.13.26-.21.38-.36.4-.4,0,0,0,0,0,0-.03-.02-.17-.1-.42-.12.17-.16.26-.29.28-.31,0,0,0,0,0,0-.04-.01-.26-.07-.68-.04.27-.21.39-.39.42-.43,0,0,0,0,0,0-.04-.01-.32-.08-.84-.01-.04,0-.07.01-.1.02.17-.27.25-.47.26-.52,0,0,0,0,0-.01-.05,0-.32-.02-.81.16.22-.32.3-.54.32-.58Z"/>
  <path class="cls-1" d="M100.38,37.62s0,0,0,0c-.03-.05-.21-.32-.66-.74.33.09.56.1.6.1,0,0,0,0,0,0-.01-.05-.1-.32-.47-.75-.1-.12-.36-.34-.36-.34,0,0-.44-.33-.75-.39l-.76-.15c-.28-.06-.6,0-.78.02s-.43.09-.61.18c-.48.24-.65.46-.68.5,0,0,0,0,0,0,.04.02.24.1.56.15-.54.2-.79.38-.84.42,0,0,0,0,0,.01.04.02.28.13.69.19,0,0,0,0,0,0-.52.26-.71.49-.74.53,0,0,0,0,0,.01.04.02.24.1.56.15-.03.02-.06.04-.09.06-.21.18-.37.54-.46.65,0,0,.23-.04.39,0,.03.02-.11.2-.11.2l-.2.31s.2.03.48,0c-.14.4-.14.64-.13.68,0,0,0,0,0,0,.04,0,.24-.06.5-.23-.05.38-.02.6-.02.64,0,0,0,0,0,0,.03-.01.19-.09.37-.32.02-.03.04-.05.06-.08-.07.37-.06.6-.06.64,0,0,0,0,0,0,.03,0,.18-.07.37-.28.03.36.1.57.11.61,0,0,0,0,0,0,.03-.02.17-.11.3-.38.01-.03.03-.06.04-.09.12.16.2.25.22.27,0,0,0,0,0,0,.02-.02.1-.17.09-.46,0-.05,0-.1-.01-.14.34.29.59.4.63.42,0,0,0,0,0,0,0-.03.05-.21-.05-.51.28.17.47.23.51.24,0,0,0,0,0,0,0-.03.04-.19-.04-.43.21.11.36.14.39.15,0,0,0,0,0,0,0-.04-.02-.27-.19-.65.29.18.5.23.54.24,0,0,0,0,0,0,0-.05-.04-.32-.28-.79-.02-.03-.04-.06-.06-.09.31.07.53.07.58.07,0,0,0,0,0,0-.01-.05-.09-.31-.43-.71.38.1.61.1.66.1Z"/>
  <path class="cls-2" d="M76.15,1.38s-3.16.33-3.42-.54.86-.86,1.2-.46c.22.26.38.85-.44,1.15-.6.22-1.38-.16-1.38-.16"/>
  <path class="cls-2" d="M95.16,43.05s2.07-2.41,1.5-3.12-1.2.22-1.06.73c.09.33.48.79,1.19.29.52-.37.65-1.22.65-1.22"/>
  <g>
    <path class="cls-1" d="M72.69,1.49c-.68-.75-2.14-.64-2.68.36s-.89,2.28-.23,2.9,2.76-.6,3.23-1.14.36-1.38-.32-2.12Z"/>
    <path class="cls-1" d="M73.69,2.37l-.53-.27c-.08-.04-.16.02-.16.11l.03.35s-.04.04-.05.02l-.39-.6s-.05-.04-.08-.04l-.54.11s-.05-.02-.03-.05l.2-.32c.05-.08.09-.1.04-.13l-.61-.3s-.02-.1.03-.09l.5.09s.04-.02.03-.04l-.32-.53s.02-.06.04-.04l.5.44c.07.06.18.05.23-.02l.19-.26s.05-.01.05.01l.07.48c.01.08.07.14.14.15l.59.13s.04.06,0,.08l-.44.12s-.03.03-.01.05l.54.5s0,.06-.03.05Z"/>
    <g class="cls-3">
      <path class="cls-1" d="M70.6,1.79s.09-.11.06-.14-.12,0-.15.04-.04.08-.02.1.07.02.11,0Z"/>
      <path class="cls-1" d="M70.43,2.38s.09-.11.06-.14-.12,0-.15.04-.04.08-.02.1.07.02.11,0Z"/>
      <path class="cls-1" d="M71.05,2.3s.09-.11.06-.14-.12,0-.15.04-.04.08-.02.1.07.02.11,0Z"/>
    </g>
    <g class="cls-3">
      <path class="cls-1" d="M70.1,3.37s.09-.11.06-.14-.12,0-.15.04-.04.08-.02.1.07.02.11,0Z"/>
      <path class="cls-1" d="M69.93,3.96s.09-.11.06-.14-.12,0-.15.04-.04.08-.02.1.07.02.11,0Z"/>
      <path class="cls-1" d="M70.55,3.88s.09-.11.06-.14-.12,0-.15.04-.04.08-.02.1.07.02.11,0Z"/>
    </g>
    <g class="cls-3">
      <path class="cls-1" d="M71.52,3.54s.09-.11.06-.14-.12,0-.15.04-.04.08-.02.1.07.02.11,0Z"/>
      <path class="cls-1" d="M72.15,3.46s.09-.11.06-.14-.12,0-.15.04-.04.08-.02.1.07.02.11,0Z"/>
    </g>
    <g class="cls-3">
      <path class="cls-1" d="M71.54,4.06s.09-.11.06-.14-.12,0-.15.04-.04.08-.02.1.07.02.11,0Z"/>
      <path class="cls-1" d="M70.81,3.26s.09-.11.06-.14-.12,0-.15.04-.04.08-.02.1.07.02.11,0Z"/>
      <path class="cls-1" d="M69.95,2.92s.09-.11.06-.14-.12,0-.15.04-.04.08-.02.1.07.02.11,0Z"/>
      <path class="cls-1" d="M73,3.07s.09-.11.06-.14-.12,0-.15.04-.04.08-.02.1.07.02.11,0Z"/>
      <path class="cls-1" d="M71.3,2.92s.09-.11.06-.14-.12,0-.15.04-.04.08-.02.1.07.02.11,0Z"/>
      <path class="cls-1" d="M72.08,2.83s.09-.11.06-.14-.12,0-.15.04-.04.08-.02.1.07.02.11,0Z"/>
      <path class="cls-1" d="M70.49,4.48s.09-.11.06-.14-.12,0-.15.04-.04.08-.02.1.07.02.11,0Z"/>
    </g>
    <ellipse class="cls-1" cx="72.7" cy="1.62" rx=".11" ry=".12" transform="translate(63.56 73.76) rotate(-84.06)"/>
  </g>
  <g>
    <path class="cls-1" d="M8.21,16.45c-.95,0-1.84-.15-2.65-.44-.81-.3-1.33-.98-1.94-1.62-.16-.26-.84-1.02-.52-1.24.1-.07.71.63,1,.96.28.14.66,1.45,4.13,1.16.63-.05,1.21-.1,1.75-.28.53-.19.96-.48,1.28-.87.32-.39.48-.87.48-1.45,0-.51-.11-.96-.31-1.33-.21-.38-.61-.71-1.22-.99s-1.51-.53-2.7-.75c-2.64-.5-3.95-1.8-3.95-3.91,0-.77.19-1.44.56-2.03.38-.58.9-1.04,1.57-1.37.67-.33,1.45-.49,2.34-.49.81,0,1.55.13,2.23.39.68.26,1.31.63,1.91,1.1.34.31.34.6.02.89-.27.27-.57.26-.91-.02-.5-.38-1.01-.66-1.53-.85-.52-.19-1.1-.28-1.73-.28-.92,0-1.67.22-2.27.68-.6.45-.9,1.1-.9,1.95,0,.74.24,1.34.72,1.8.48.46,1.34.8,2.59,1.03,1.73.31,2.98.79,3.73,1.45.75.66,1.13,1.57,1.13,2.72,0,.79-.21,1.48-.64,2.05-.42.57-1,1.01-1.73,1.31-.73.3-1.54.45-2.44.45Z"/>
    <path class="cls-1" d="M16.48,16.21c-.42,0-.63-.22-.63-.66V2.75c0-.44.22-.66.67-.66h7.49c.46,0,.69.19.69.58s-.23.58-.69.58h-6.92v5.13h6.28c.44,0,.66.2.66.6s-.22.61-.66.61h-6.28v5.95c0,.44-.2.66-.61.66Z"/>
    <path class="cls-1" d="M27.6,16.21c-.42,0-.63-.22-.63-.66V2.75c0-.44.21-.66.63-.66s.61.22.61.66v5.53l6.38-5.77c.15-.18.29-.29.42-.34.13-.05.3-.08.48-.08.31,0,.5.09.55.27.06.18,0,.37-.17.55l-6.52,5.79,7.08,6.76c.15.17.2.35.14.53-.05.18-.23.27-.55.27-.23,0-.42-.04-.56-.12-.15-.08-.28-.18-.38-.3l-6.88-6.76v6.46c0,.44-.2.66-.61.66Z"/>
    <path class="cls-1" d="M42.91,16.43c-.86,0-1.63-.22-2.3-.65-.67-.43-1.2-1.02-1.59-1.78-.39-.76-.59-1.64-.59-2.63s.2-1.87.59-2.63c.39-.76.92-1.36,1.59-1.79.67-.43,1.44-.65,2.3-.65s1.65.22,2.32.65c.67.43,1.2,1.03,1.59,1.79.39.76.58,1.64.58,2.63s-.19,1.87-.58,2.63-.92,1.35-1.59,1.78c-.67.43-1.44.65-2.32.65ZM42.91,15.28c.63,0,1.19-.16,1.68-.48s.88-.78,1.16-1.36c.28-.59.42-1.27.42-2.07s-.14-1.48-.42-2.07c-.28-.59-.67-1.04-1.16-1.36-.49-.32-1.05-.48-1.68-.48-.94,0-1.72.35-2.33,1.06s-.92,1.66-.92,2.86.31,2.13.92,2.85,1.39,1.07,2.33,1.07Z"/>
    <path class="cls-1" d="M53.16,16.43c-.74,0-1.42-.12-2.03-.37-.61-.25-1.13-.6-1.54-1.06-.17-.15-.25-.3-.24-.45.01-.15.09-.29.22-.41.26-.22.55-.19.89.08.31.35.7.62,1.18.81.48.19,1,.28,1.56.28.66,0,1.22-.14,1.68-.43s.7-.74.7-1.36c0-.55-.22-.94-.67-1.15-.44-.22-1.12-.42-2.04-.6-.56-.12-1.1-.27-1.6-.44-.5-.17-.91-.44-1.22-.8-.31-.36-.46-.85-.46-1.48,0-.58.16-1.07.47-1.47.32-.4.74-.71,1.26-.93.53-.21,1.08-.32,1.67-.32,1.32,0,2.32.41,3.01,1.23.19.13.28.28.28.42s-.07.28-.2.4c-.13.13-.27.19-.41.17-.14-.02-.29-.09-.45-.21-.5-.59-1.23-.89-2.2-.89-.7,0-1.24.15-1.61.45-.38.3-.56.68-.56,1.12,0,.5.21.85.62,1.06s1.05.41,1.91.59c.61.13,1.17.3,1.71.5.53.2.96.48,1.28.85.32.36.48.87.48,1.51,0,.86-.33,1.56-1,2.1-.66.54-1.56.81-2.67.81Z"/>
    <path class="cls-1" d="M59.72,16.21c-.42,0-.63-.22-.63-.66V2.31c0-.44.21-.67.63-.67s.61.22.61.67v5.61c.28-.46.68-.84,1.2-1.15.52-.31,1.11-.46,1.77-.46,1.04,0,1.87.33,2.5.99s.95,1.6.95,2.82v5.43c0,.44-.2.66-.6.66s-.61-.22-.61-.66v-5.25c0-.94-.22-1.65-.68-2.12-.45-.47-1.03-.71-1.75-.71-.54,0-1.02.12-1.44.35-.42.23-.75.55-.99.95-.24.4-.35.84-.35,1.32v5.45c0,.44-.2.66-.61.66Z"/>
    <path class="cls-1" d="M70.7,16.21c-.4,0-.61-.22-.61-.66V7.21c0-.44.2-.67.61-.67s.6.22.6.67v8.33c0,.44-.2.66-.6.66Z"/>
    <path class="cls-1" d="M78.4,20.57c-1.51,0-2.72-.52-3.63-1.55-.3-.34-.26-.63.1-.87.28-.2.58-.15.89.16.65.73,1.53,1.09,2.64,1.09.99,0,1.76-.33,2.28-.98.53-.65.79-1.63.79-2.94v-1.74c-.33.53-.77.94-1.31,1.24-.54.3-1.15.45-1.84.45-.82,0-1.55-.19-2.19-.56-.64-.38-1.14-.91-1.51-1.59-.37-.68-.55-1.49-.55-2.42s.18-1.73.55-2.41c.37-.68.87-1.21,1.51-1.58s1.37-.56,2.19-.56c.7,0,1.33.16,1.9.48.56.32,1.01.79,1.35,1.39v-1.07c0-.38.18-.56.55-.56s.56.22.56.67v8.27c0,1.75-.39,3.03-1.18,3.85-.79.82-1.82,1.23-3.1,1.23ZM78.38,14.31c.61,0,1.14-.14,1.61-.43.47-.29.84-.69,1.11-1.21.27-.52.4-1.12.4-1.81s-.13-1.28-.4-1.8c-.27-.51-.64-.91-1.11-1.2-.47-.29-1.01-.43-1.61-.43s-1.12.14-1.58.43c-.46.29-.83.69-1.1,1.2-.27.51-.4,1.11-.4,1.8s.13,1.29.4,1.81c.27.52.64.92,1.1,1.21.46.29.99.43,1.58.43Z"/>
    <path class="cls-1" d="M88.27,16.39c-.94.01-1.7-.2-2.29-.65-.59-.44-.88-1.09-.88-1.94,0-.65.22-1.21.66-1.69.44-.48.99-.86,1.67-1.14.68-.28,1.38-.41,2.11-.41.99,0,1.78.23,2.36.71v-1.66c0-.9-.19-1.49-.56-1.77s-.98-.41-1.82-.41c-.44,0-.93.07-1.46.2-.53.13-1.01.31-1.44.52-.4.16-.69.1-.87-.18-.2-.35-.09-.62.32-.81.5-.25,1.06-.46,1.68-.63.63-.16,1.21-.24,1.77-.24,1.22,0,2.13.23,2.7.71s.87,1.34.87,2.6v5.35c0,.18.03.28.1.32s.21.06.42.06c.17,0,.32.03.44.09s.18.16.18.29c0,.34-.17.53-.51.59-.11.03-.22.05-.34.06-.12.01-.24.02-.34.02-.46,0-.75-.1-.89-.28-.13-.19-.22-.55-.24-1.07-.42.46-.97.79-1.66,1.01s-1.35.33-2,.34ZM88.33,15.28c.65-.01,1.25-.11,1.81-.3.56-.19,1-.46,1.33-.82s.48-.79.45-1.3c-.04-.42-.27-.73-.69-.94s-.96-.31-1.61-.29c-.55,0-1.08.09-1.59.28s-.92.45-1.24.78c-.32.33-.47.71-.47,1.14,0,.5.19.87.57,1.1.38.23.86.35,1.45.35Z"/>
    <path class="cls-1" d="M108.79,16.39c-.94.01-1.7-.2-2.29-.65-.59-.44-.88-1.09-.88-1.94,0-.65.22-1.21.66-1.69.44-.48.99-.86,1.67-1.14.68-.28,1.38-.41,2.11-.41.99,0,1.78.23,2.36.71v-1.66c0-.9-.19-1.49-.56-1.77s-.98-.41-1.82-.41c-.44,0-.93.07-1.46.2-.53.13-1.01.31-1.44.52-.4.16-.69.1-.87-.18-.2-.35-.09-.62.32-.81.5-.25,1.06-.46,1.68-.63.63-.16,1.21-.24,1.77-.24,1.22,0,2.13.23,2.7.71s.87,1.34.87,2.6v5.35c0,.18.03.28.1.32s.21.06.42.06c.17,0,.32.03.44.09s.18.16.18.29c0,.34-.17.53-.51.59-.11.03-.22.05-.34.06-.12.01-.24.02-.34.02-.46,0-.75-.1-.89-.28-.13-.19-.22-.55-.24-1.07-.42.46-.97.79-1.66,1.01s-1.35.33-2,.34ZM108.85,15.28c.65-.01,1.25-.11,1.81-.3.56-.19,1-.46,1.33-.82s.48-.79.45-1.3c-.04-.42-.27-.73-.69-.94s-.96-.31-1.61-.29c-.55,0-1.08.09-1.59.28s-.92.45-1.24.78c-.32.33-.47.71-.47,1.14,0,.5.19.87.57,1.1.38.23.86.35,1.45.35Z"/>
  </g>
  <path class="cls-1" d="M99.82,18.2c-.14.8-.41,2.65-.58,3.38s-.67,13.28-.71,12.63v4.14s-.63.21-.69,1.2c0,0,.43-13.78.56-17.98.02-.77.13-1.52.31-2.26h0s.84-3.38.84-3.38c.07-.65-3.49-8.61-3.49-8.61-.09-.21-.1-.4-.04-.53.07-.14.2-.2.39-.2h.06c.36,0,.62.16.76.5l2.89,7.37,2.78-7.35c.13-.35.37-.52.75-.52.22,0,.36.07.44.2.09.14.09.32,0,.53"/>
  <g>
    <path class="cls-1" d="M97.8,30.48c-.68-.75-2.14-.64-2.68.36s-.89,2.28-.23,2.9,2.76-.6,3.23-1.14.36-1.38-.32-2.12Z"/>
    <path class="cls-1" d="M98.8,31.36l-.53-.27c-.08-.04-.16.02-.16.11l.03.35s-.04.04-.05.02l-.39-.6s-.05-.04-.08-.04l-.54.11s-.05-.02-.03-.05l.2-.32c.05-.08.09-.1.04-.13l-.61-.3s-.02-.1.03-.09l.5.09s.04-.02.03-.04l-.32-.53s.02-.06.04-.04l.5.44c.07.06.18.05.23-.02l.19-.26s.05-.01.05.01l.07.48c.01.08.07.14.14.15l.59.13s.04.06,0,.08l-.44.12s-.03.03-.01.05l.54.5s0,.06-.03.05Z"/>
    <g class="cls-3">
      <path class="cls-1" d="M95.71,30.79s.09-.11.06-.14-.12,0-.15.04-.04.08-.02.1.07.02.11,0Z"/>
      <path class="cls-1" d="M95.54,31.38s.09-.11.06-.14-.12,0-.15.04-.04.08-.02.1.07.02.11,0Z"/>
      <path class="cls-1" d="M96.16,31.29s.09-.11.06-.14-.12,0-.15.04-.04.08-.02.1.07.02.11,0Z"/>
    </g>
    <g class="cls-3">
      <path class="cls-1" d="M95.21,32.37s.09-.11.06-.14-.12,0-.15.04-.04.08-.02.1.07.02.11,0Z"/>
      <path class="cls-1" d="M95.04,32.96s.09-.11.06-.14-.12,0-.15.04-.04.08-.02.1.07.02.11,0Z"/>
      <path class="cls-1" d="M95.67,32.88s.09-.11.06-.14-.12,0-.15.04-.04.08-.02.1.07.02.11,0Z"/>
    </g>
    <g class="cls-3">
      <path class="cls-1" d="M96.64,32.54s.09-.11.06-.14-.12,0-.15.04-.04.08-.02.1.07.02.11,0Z"/>
      <path class="cls-1" d="M97.26,32.46s.09-.11.06-.14-.12,0-.15.04-.04.08-.02.1.07.02.11,0Z"/>
    </g>
    <g class="cls-3">
      <path class="cls-1" d="M96.65,33.06s.09-.11.06-.14-.12,0-.15.04-.04.08-.02.1.07.02.11,0Z"/>
      <path class="cls-1" d="M95.92,32.26s.09-.11.06-.14-.12,0-.15.04-.04.08-.02.1.07.02.11,0Z"/>
      <path class="cls-1" d="M95.06,31.92s.09-.11.06-.14-.12,0-.15.04-.04.08-.02.1.07.02.11,0Z"/>
      <path class="cls-1" d="M98.11,32.07s.09-.11.06-.14-.12,0-.15.04-.04.08-.02.1.07.02.11,0Z"/>
      <path class="cls-1" d="M96.42,31.92s.09-.11.06-.14-.12,0-.15.04-.04.08-.02.1.07.02.11,0Z"/>
      <path class="cls-1" d="M97.2,31.83s.09-.11.06-.14-.12,0-.15.04-.04.08-.02.1.07.02.11,0Z"/>
      <path class="cls-1" d="M95.6,33.48s.09-.11.06-.14-.12,0-.15.04-.04.08-.02.1.07.02.11,0Z"/>
    </g>
    <ellipse class="cls-1" cx="97.81" cy="30.62" rx=".11" ry=".12" transform="translate(57.23 124.73) rotate(-84.06)"/>
  </g>
  <g>
    <path class="cls-1" d="M97.66,27.86c-.35-.71-1.48-.95-2.1-.3s-1.16,1.53-.8,2.14,2.21.14,2.68-.16.57-.96.22-1.67Z"/>
    <path class="cls-1" d="M98.22,28.74l-.34-.32s-.13-.02-.14.05l-.05.27s-.04.03-.05,0l-.16-.54s-.03-.04-.06-.04l-.43-.03s-.03-.03-.01-.04l.22-.2c.06-.05.09-.06.06-.09l-.4-.36s0-.08.04-.06l.36.18s.04,0,.03-.03l-.12-.47s.03-.04.04-.02l.28.44c.04.06.12.08.18.03l.2-.15s.04,0,.04.02l-.05.38c0,.06.02.12.07.15l.42.23s.02.06-.01.06h-.36s-.03.02-.02.03l.3.5s-.02.05-.04.03Z"/>
    <g class="cls-3">
      <path class="cls-1" d="M96.01,27.64s.09-.06.08-.09-.09-.02-.12,0-.05.05-.04.08.05.03.08.02Z"/>
      <path class="cls-1" d="M95.76,28.05s.09-.06.08-.09-.09-.02-.12,0-.05.05-.04.08.05.03.08.02Z"/>
      <path class="cls-1" d="M96.25,28.12s.09-.06.08-.09-.09-.02-.12,0-.05.05-.04.08.05.03.08.02Z"/>
    </g>
    <g class="cls-3">
      <path class="cls-1" d="M95.3,28.73s.09-.06.08-.09-.09-.02-.12,0-.05.05-.04.08.05.03.08.02Z"/>
      <path class="cls-1" d="M95.04,29.14s.09-.06.08-.09-.09-.02-.12,0-.05.05-.04.08.05.03.08.02Z"/>
      <path class="cls-1" d="M95.53,29.21s.09-.06.08-.09-.09-.02-.12,0-.05.05-.04.08.05.03.08.02Z"/>
    </g>
    <g class="cls-3">
      <path class="cls-1" d="M96.34,29.17s.09-.06.08-.09-.09-.02-.12,0-.05.05-.04.08.05.03.08.02Z"/>
      <path class="cls-1" d="M96.83,29.24s.09-.06.08-.09-.09-.02-.12,0-.05.05-.04.08.05.03.08.02Z"/>
    </g>
    <g class="cls-3">
      <path class="cls-1" d="M96.23,29.56s.09-.06.08-.09-.09-.02-.12,0-.05.05-.04.08.05.03.08.02Z"/>
      <path class="cls-1" d="M95.85,28.8s.09-.06.08-.09-.09-.02-.12,0-.05.05-.04.08.05.03.08.02Z"/>
      <path class="cls-1" d="M95.28,28.35s.09-.06.08-.09-.09-.02-.12,0-.05.05-.04.08.05.03.08.02Z"/>
      <path class="cls-1" d="M97.55,29.13s.09-.06.08-.09-.09-.02-.12,0-.05.05-.04.08.05.03.08.02Z"/>
      <path class="cls-1" d="M96.3,28.65s.09-.06.08-.09-.09-.02-.12,0-.05.05-.04.08.05.03.08.02Z"/>
      <path class="cls-1" d="M96.91,28.75s.09-.06.08-.09-.09-.02-.12,0-.05.05-.04.08.05.03.08.02Z"/>
      <path class="cls-1" d="M95.35,29.65s.09-.06.08-.09-.09-.02-.12,0-.05.05-.04.08.05.03.08.02Z"/>
    </g>
    <ellipse class="cls-1" cx="97.64" cy="27.96" rx=".09" ry=".09" transform="translate(35.23 108.09) rotate(-68.07)"/>
  </g>
  <g>
    <path class="cls-1" d="M100.31,36.55c-.32.42-.12,1.13.45,1.27s1.26.16,1.52-.24-.58-1.28-.91-1.45-.75-.01-1.06.41Z"/>
    <path class="cls-1" d="M100.66,35.95l-.09.3s.03.08.07.06l.18-.06s.03.01.01.02l-.27.26s-.02.03,0,.05l.11.25s0,.03-.02.02l-.19-.06s-.06-.03-.07,0l-.09.34s-.05.02-.05,0v-.26s-.02-.02-.03,0l-.24.22s-.03,0-.02-.02l.17-.3s0-.09-.03-.11l-.15-.06s-.01-.02,0-.03l.24-.09s.06-.05.06-.09v-.31s.04-.03.05-.01l.11.2s.02.01.03,0l.2-.33s.03,0,.03.01Z"/>
    <g class="cls-3">
      <path class="cls-1" d="M100.67,37.54s-.07-.03-.08-.02.02.06.04.07.04.01.06,0,0-.04-.01-.05Z"/>
      <path class="cls-1" d="M100.99,37.55s-.07-.03-.08-.02.02.06.04.07.04.01.06,0,0-.04-.01-.05Z"/>
      <path class="cls-1" d="M100.89,37.26s-.07-.03-.08-.02.02.06.04.07.04.01.06,0,0-.04-.01-.05Z"/>
    </g>
    <g class="cls-3">
      <path class="cls-1" d="M101.53,37.6s-.07-.03-.08-.02.02.06.04.07.04.01.06,0,0-.04-.01-.05Z"/>
      <path class="cls-1" d="M101.86,37.61s-.07-.03-.08-.02.02.06.04.07.04.01.06,0,0-.04-.01-.05Z"/>
      <path class="cls-1" d="M101.75,37.31s-.07-.03-.08-.02.02.06.04.07.04.01.06,0,0-.04-.01-.05Z"/>
    </g>
    <g class="cls-3">
      <path class="cls-1" d="M101.48,36.87s-.07-.03-.08-.02.02.06.04.07.04.01.06,0,0-.04-.01-.05Z"/>
      <path class="cls-1" d="M101.38,36.58s-.07-.03-.08-.02.02.06.04.07.04.01.06,0,0-.04-.01-.05Z"/>
    </g>
    <g class="cls-3">
      <path class="cls-1" d="M101.75,36.8s-.07-.03-.08-.02.02.06.04.07.04.01.06,0,0-.04-.01-.05Z"/>
      <path class="cls-1" d="M101.41,37.26s-.07-.03-.08-.02.02.06.04.07.04.01.06,0,0-.04-.01-.05Z"/>
      <path class="cls-1" d="M101.32,37.72s-.07-.03-.08-.02.02.06.04.07.04.01.06,0,0-.04-.01-.05Z"/>
      <path class="cls-1" d="M101.09,36.2s-.07-.03-.08-.02.02.06.04.07.04.01.06,0,0-.04-.01-.05Z"/>
      <path class="cls-1" d="M101.18,37.06s-.07-.03-.08-.02.02.06.04.07.04.01.06,0,0-.04-.01-.05Z"/>
      <path class="cls-1" d="M101.06,36.68s-.07-.03-.08-.02.02.06.04.07.04.01.06,0,0-.04-.01-.05Z"/>
      <path class="cls-1" d="M102.07,37.27s-.07-.03-.08-.02.02.06.04.07.04.01.06,0,0-.04-.01-.05Z"/>
    </g>
    <circle class="cls-1" cx="100.37" cy="36.53" r=".06" transform="translate(39.34 124.19) rotate(-75.15)"/>
  </g>
  <g>
    <path class="cls-1" d="M98.91,36.48c-.6-.44-1.59-.16-1.78.65s-.21,1.77.35,2.13,1.8-.83,2.02-1.29,0-1.05-.59-1.49Z"/>
    <path class="cls-1" d="M99.76,36.97l-.42-.12c-.06-.02-.11.04-.09.1l.08.25s-.02.04-.03.02l-.37-.38s-.04-.02-.06-.01l-.35.16s-.04-.01-.03-.03l.08-.26c.02-.07.04-.09,0-.1l-.47-.13s-.03-.07,0-.07h.36s.03-.03.01-.04l-.31-.34s0-.05.02-.03l.42.24c.06.03.13.01.16-.05l.09-.21s.03-.02.04,0l.13.34c.02.05.07.09.12.09h.43s.04.05.01.06l-.28.15s-.01.03,0,.04l.46.28s0,.05-.01.04Z"/>
    <g class="cls-3">
      <path class="cls-1" d="M97.52,37s.04-.09.02-.11-.08.02-.1.05-.01.06,0,.08.05,0,.07-.02Z"/>
      <path class="cls-1" d="M97.51,37.45s.04-.09.02-.11-.08.02-.1.05-.01.06,0,.08.05,0,.07-.02Z"/>
      <path class="cls-1" d="M97.93,37.3s.04-.09.02-.11-.08.02-.1.05-.01.06,0,.08.05,0,.07-.02Z"/>
    </g>
    <g class="cls-3">
      <path class="cls-1" d="M97.46,38.21s.04-.09.02-.11-.08.02-.1.05-.01.06,0,.08.05,0,.07-.02Z"/>
      <path class="cls-1" d="M97.44,38.66s.04-.09.02-.11-.08.02-.1.05-.01.06,0,.08.05,0,.07-.02Z"/>
      <path class="cls-1" d="M97.86,38.51s.04-.09.02-.11-.08.02-.1.05-.01.06,0,.08.05,0,.07-.02Z"/>
    </g>
    <g class="cls-3">
      <path class="cls-1" d="M98.47,38.13s.04-.09.02-.11-.08.02-.1.05-.01.06,0,.08.05,0,.07-.02Z"/>
      <path class="cls-1" d="M98.89,37.98s.04-.09.02-.11-.08.02-.1.05-.01.06,0,.08.05,0,.07-.02Z"/>
    </g>
    <g class="cls-3">
      <path class="cls-1" d="M98.57,38.5s.04-.09.02-.11-.08.02-.1.05-.01.06,0,.08.05,0,.07-.02Z"/>
      <path class="cls-1" d="M97.92,38.03s.04-.09.02-.11-.08.02-.1.05-.01.06,0,.08.05,0,.07-.02Z"/>
      <path class="cls-1" d="M97.28,37.91s.04-.09.02-.11-.08.02-.1.05-.01.06,0,.08.05,0,.07-.02Z"/>
      <path class="cls-1" d="M99.41,37.58s.04-.09.02-.11-.08.02-.1.05-.01.06,0,.08.05,0,.07-.02Z"/>
      <path class="cls-1" d="M98.21,37.71s.04-.09.02-.11-.08.02-.1.05-.01.06,0,.08.05,0,.07-.02Z"/>
      <path class="cls-1" d="M98.73,37.54s.04-.09.02-.11-.08.02-.1.05-.01.06,0,.08.05,0,.07-.02Z"/>
      <path class="cls-1" d="M97.92,38.96s.04-.09.02-.11-.08.02-.1.05-.01.06,0,.08.05,0,.07-.02Z"/>
    </g>
    <ellipse class="cls-1" cx="98.94" cy="36.57" rx=".08" ry=".09" transform="translate(38.83 123.25) rotate(-75.54)"/>
  </g>
  <g>
    <path class="cls-1" d="M4.61,14.93c-.51-.56-1.59-.48-2,.27s-.66,1.7-.17,2.16,2.06-.45,2.4-.85.27-1.03-.24-1.58Z"/>
    <path class="cls-1" d="M5.35,15.58l-.4-.2c-.06-.03-.12.02-.12.08l.02.26s-.03.03-.04.01l-.29-.45s-.04-.03-.06-.03l-.4.09s-.04-.02-.03-.04l.15-.24c.04-.06.06-.08.03-.1l-.46-.22s-.02-.07.02-.07l.37.07s.03-.02.02-.03l-.24-.4s.01-.04.03-.03l.37.32c.05.05.13.04.17-.02l.14-.19s.04,0,.04.01l.05.36c0,.06.05.1.11.11l.44.1s.03.05,0,.06l-.33.09s-.02.03,0,.04l.41.37s0,.05-.02.04Z"/>
    <g class="cls-3">
      <path class="cls-1" d="M3.05,15.15s.07-.08.05-.1-.09,0-.11.03-.03.06-.01.08.05.02.08,0Z"/>
      <path class="cls-1" d="M2.92,15.59s.07-.08.05-.1-.09,0-.11.03-.03.06-.01.08.05.02.08,0Z"/>
      <path class="cls-1" d="M3.39,15.53s.07-.08.05-.1-.09,0-.11.03-.03.06-.01.08.05.02.08,0Z"/>
    </g>
    <g class="cls-3">
      <path class="cls-1" d="M2.68,16.33s.07-.08.05-.1-.09,0-.11.03-.03.06-.01.08.05.02.08,0Z"/>
      <path class="cls-1" d="M2.55,16.77s.07-.08.05-.1-.09,0-.11.03-.03.06-.01.08.05.02.08,0Z"/>
      <path class="cls-1" d="M3.02,16.71s.07-.08.05-.1-.09,0-.11.03-.03.06-.01.08.05.02.08,0Z"/>
    </g>
    <g class="cls-3">
      <path class="cls-1" d="M3.74,16.46s.07-.08.05-.1-.09,0-.11.03-.03.06-.01.08.05.02.08,0Z"/>
      <path class="cls-1" d="M4.21,16.4s.07-.08.05-.1-.09,0-.11.03-.03.06-.01.08.05.02.08,0Z"/>
    </g>
    <g class="cls-3">
      <path class="cls-1" d="M3.75,16.85s.07-.08.05-.1-.09,0-.11.03-.03.06-.01.08.05.02.08,0Z"/>
      <path class="cls-1" d="M3.21,16.25s.07-.08.05-.1-.09,0-.11.03-.03.06-.01.08.05.02.08,0Z"/>
      <path class="cls-1" d="M2.57,15.99s.07-.08.05-.1-.09,0-.11.03-.03.06-.01.08.05.02.08,0Z"/>
      <path class="cls-1" d="M4.84,16.11s.07-.08.05-.1-.09,0-.11.03-.03.06-.01.08.05.02.08,0Z"/>
      <path class="cls-1" d="M3.58,15.99s.07-.08.05-.1-.09,0-.11.03-.03.06-.01.08.05.02.08,0Z"/>
      <path class="cls-1" d="M4.16,15.93s.07-.08.05-.1-.09,0-.11.03-.03.06-.01.08.05.02.08,0Z"/>
      <path class="cls-1" d="M2.97,17.16s.07-.08.05-.1-.09,0-.11.03-.03.06-.01.08.05.02.08,0Z"/>
    </g>
    <ellipse class="cls-1" cx="4.62" cy="15.03" rx=".08" ry=".09" transform="translate(-10.81 18.06) rotate(-84.06)"/>
  </g>
  <g>
    <path class="cls-1" d="M5.22,15.85c-.68.32-.92,1.38-.32,1.99s1.43,1.13,2.02.8.17-2.1-.11-2.55-.9-.56-1.58-.24Z"/>
    <path class="cls-1" d="M6.07,15.33l-.31.32s-.02.12.04.13l.26.05s.02.04,0,.04l-.51.14s-.04.03-.04.05l-.04.41s-.03.03-.04.01l-.18-.21c-.05-.06-.06-.08-.09-.05l-.35.37s-.07,0-.06-.04l.17-.34s0-.04-.02-.03l-.45.11s-.04-.03-.02-.04l.42-.26c.06-.04.07-.11.03-.17l-.14-.19s0-.04.02-.03l.36.05c.06,0,.11-.02.14-.07l.22-.39s.06-.02.05.02v.34s0,.03.02.02l.48-.28s.04.02.03.03Z"/>
    <g class="cls-3">
      <path class="cls-1" d="M4.99,17.41s-.06-.09-.08-.08-.02.09,0,.12.05.05.07.03.03-.05.02-.08Z"/>
      <path class="cls-1" d="M5.37,17.66s-.06-.09-.08-.08-.02.09,0,.12.05.05.07.03.03-.05.02-.08Z"/>
      <path class="cls-1" d="M5.45,17.2s-.06-.09-.08-.08-.02.09,0,.12.05.05.07.03.03-.05.02-.08Z"/>
    </g>
    <g class="cls-3">
      <path class="cls-1" d="M6.01,18.11s-.06-.09-.08-.08-.02.09,0,.12.05.05.07.03.03-.05.02-.08Z"/>
      <path class="cls-1" d="M6.39,18.36s-.06-.09-.08-.08-.02.09,0,.12.05.05.07.03.03-.05.02-.08Z"/>
      <path class="cls-1" d="M6.46,17.9s-.06-.09-.08-.08-.02.09,0,.12.05.05.07.03.03-.05.02-.08Z"/>
    </g>
    <g class="cls-3">
      <path class="cls-1" d="M6.44,17.13s-.06-.09-.08-.08-.02.09,0,.12.05.05.07.03.03-.05.02-.08Z"/>
      <path class="cls-1" d="M6.51,16.67s-.06-.09-.08-.08-.02.09,0,.12.05.05.07.03.03-.05.02-.08Z"/>
    </g>
    <g class="cls-3">
      <path class="cls-1" d="M6.81,17.23s-.06-.09-.08-.08-.02.09,0,.12.05.05.07.03.03-.05.02-.08Z"/>
      <path class="cls-1" d="M6.08,17.58s-.06-.09-.08-.08-.02.09,0,.12.05.05.07.03.03-.05.02-.08Z"/>
      <path class="cls-1" d="M5.65,18.12s-.06-.09-.08-.08-.02.09,0,.12.05.05.07.03.03-.05.02-.08Z"/>
      <path class="cls-1" d="M6.42,15.97s-.06-.09-.08-.08-.02.09,0,.12.05.05.07.03.03-.05.02-.08Z"/>
      <path class="cls-1" d="M5.94,17.15s-.06-.09-.08-.08-.02.09,0,.12.05.05.07.03.03-.05.02-.08Z"/>
      <path class="cls-1" d="M6.05,16.58s-.06-.09-.08-.08-.02.09,0,.12.05.05.07.03.03-.05.02-.08Z"/>
      <path class="cls-1" d="M6.88,18.07s-.06-.09-.08-.08-.02.09,0,.12.05.05.07.03.03-.05.02-.08Z"/>
    </g>
    <ellipse class="cls-1" cx="5.32" cy="15.88" rx=".09" ry=".08" transform="translate(-11.38 14.6) rotate(-67.1)"/>
  </g>
  <g>
    <path class="cls-1" d="M99.62,37.82c-.69.37-.87,1.43-.2,1.99s1.59,1.01,2.18.64.03-2.08-.3-2.51-.99-.48-1.68-.12Z"/>
    <path class="cls-1" d="M100.47,37.25l-.3.34s-.01.12.05.13l.27.03s.03.03,0,.04l-.53.18s-.04.03-.04.05v.41s-.04.03-.05.02l-.21-.2c-.06-.05-.06-.08-.09-.05l-.34.39s-.08,0-.06-.04l.16-.34s0-.04-.03-.03l-.46.14s-.04-.02-.02-.04l.42-.29c.06-.04.07-.12.02-.17l-.16-.18s0-.04.02-.04l.38.03c.06,0,.12-.03.14-.08l.2-.4s.06-.02.06.01v.33s.03.03.05.02l.48-.31s.05.01.03.03Z"/>
    <g class="cls-3">
      <path class="cls-1" d="M99.48,39.38s-.07-.08-.09-.07-.02.09,0,.12.05.04.08.03.03-.05.01-.08Z"/>
      <path class="cls-1" d="M99.9,39.6s-.07-.08-.09-.07-.02.09,0,.12.05.04.08.03.03-.05.01-.08Z"/>
      <path class="cls-1" d="M99.95,39.14s-.07-.08-.09-.07-.02.09,0,.12.05.04.08.03.03-.05.01-.08Z"/>
    </g>
    <g class="cls-3">
      <path class="cls-1" d="M100.6,40s-.07-.08-.09-.07-.02.09,0,.12.05.04.08.03.03-.05.01-.08Z"/>
      <path class="cls-1" d="M101.03,40.22s-.07-.08-.09-.07-.02.09,0,.12.05.04.08.03.03-.05.01-.08Z"/>
      <path class="cls-1" d="M101.07,39.75s-.07-.08-.09-.07-.02.09,0,.12.05.04.08.03.03-.05.01-.08Z"/>
    </g>
    <g class="cls-3">
      <path class="cls-1" d="M100.99,39s-.07-.08-.09-.07-.02.09,0,.12.05.04.08.03.03-.05.01-.08Z"/>
      <path class="cls-1" d="M101.04,38.53s-.07-.08-.09-.07-.02.09,0,.12.05.04.08.03.03-.05.01-.08Z"/>
    </g>
    <g class="cls-3">
      <path class="cls-1" d="M101.39,39.07s-.07-.08-.09-.07-.02.09,0,.12.05.04.08.03.03-.05.01-.08Z"/>
      <path class="cls-1" d="M100.65,39.47s-.07-.08-.09-.07-.02.09,0,.12.05.04.08.03.03-.05.01-.08Z"/>
      <path class="cls-1" d="M100.23,40.03s-.07-.08-.09-.07-.02.09,0,.12.05.04.08.03.03-.05.01-.08Z"/>
      <path class="cls-1" d="M100.89,37.86s-.07-.08-.09-.07-.02.09,0,.12.05.04.08.03.03-.05.01-.08Z"/>
      <path class="cls-1" d="M100.47,39.05s-.07-.08-.09-.07-.02.09,0,.12.05.04.08.03.03-.05.01-.08Z"/>
      <path class="cls-1" d="M100.55,38.48s-.07-.08-.09-.07-.02.09,0,.12.05.04.08.03.03-.05.01-.08Z"/>
      <path class="cls-1" d="M101.52,39.9s-.07-.08-.09-.07-.02.09,0,.12.05.04.08.03.03-.05.01-.08Z"/>
    </g>
    <ellipse class="cls-1" cx="99.73" cy="37.84" rx=".09" ry=".08" transform="translate(6.51 89.69) rotate(-49.86)"/>
  </g>
  <path class="cls-2" d="M3.41,13.61s-1.83-1.11-1.27-1.99,1.85.17,1.85.78c0,.39-.4.97-1.64.44-.91-.39-1.99-.96-1.99-.96"/>
</svg>