<?xml version="1.0" encoding="UTF-8"?>
<svg id="_ロゴ" data-name="ロゴ" xmlns="http://www.w3.org/2000/svg" viewBox="0 0 168.45 63.26">
  <defs>
    <style>
      .cls-1 {
        fill: #fff;
      }

      .cls-2 {
        fill: #0b8142;
      }

      .cls-3 {
        opacity: .88;
      }

      .cls-4 {
        fill: none;
        stroke: #0b8142;
        stroke-linecap: round;
        stroke-miterlimit: 10;
        stroke-width: .25px;
      }

      .cls-5 {
        fill: #009844;
      }

      .cls-6 {
        fill: #ba1b21;
      }
    </style>
  </defs>
  <g>
    <path class="cls-6" d="M7.76,22c.43.96,1.9,1.34,2.77.52s1.63-1.96,1.18-2.79-2.93-.31-3.57.07-.81,1.24-.39,2.21Z"/>
    <path class="cls-5" d="M7.06,20.8l.44.44c.06.06.17.03.19-.05l.08-.35s.05-.03.06,0l.18.72s.04.06.07.06l.57.06s.04.04.02.06l-.31.25c-.08.07-.12.08-.08.12l.51.5s-.01.1-.06.08l-.46-.25s-.05,0-.04.03l.14.63s-.04.05-.06.02l-.35-.59c-.05-.08-.16-.11-.24-.05l-.28.19s-.05,0-.05-.03l.09-.5c.01-.08-.02-.16-.09-.2l-.54-.32s-.02-.08.02-.08l.47.03s.04-.02.03-.05l-.37-.68s.02-.06.05-.04Z"/>
    <g class="cls-3">
      <path class="cls-1" d="M9.93,22.39s-.12.08-.11.11.12.03.16.01.07-.06.05-.1-.06-.05-.11-.03Z"/>
      <path class="cls-1" d="M10.29,21.86s-.12.08-.11.11.12.03.16.01.07-.06.05-.1-.06-.05-.11-.03Z"/>
      <path class="cls-1" d="M9.65,21.74s-.12.08-.11.11.12.03.16.01.07-.06.05-.1-.06-.05-.11-.03Z"/>
    </g>
    <g class="cls-3">
      <path class="cls-1" d="M10.94,20.99s-.12.08-.11.11.12.03.16.01.07-.06.05-.1-.06-.05-.11-.03Z"/>
      <path class="cls-1" d="M11.31,20.46s-.12.08-.11.11.12.03.16.01.07-.06.05-.1-.06-.05-.11-.03Z"/>
      <path class="cls-1" d="M10.66,20.34s-.12.08-.11.11.12.03.16.01.07-.06.05-.1-.06-.05-.11-.03Z"/>
    </g>
    <g class="cls-3">
      <path class="cls-1" d="M9.59,20.35s-.12.08-.11.11.12.03.16.01.07-.06.05-.1-.06-.05-.11-.03Z"/>
      <path class="cls-1" d="M8.94,20.23s-.12.08-.11.11.12.03.16.01.07-.06.05-.1-.06-.05-.11-.03Z"/>
    </g>
    <g class="cls-3">
      <path class="cls-1" d="M9.74,19.83s-.12.08-.11.11.12.03.16.01.07-.06.05-.1-.06-.05-.11-.03Z"/>
      <path class="cls-1" d="M10.21,20.87s-.12.08-.11.11.12.03.16.01.07-.06.05-.1-.06-.05-.11-.03Z"/>
      <path class="cls-1" d="M10.94,21.49s-.12.08-.11.11.12.03.16.01.07-.06.05-.1-.06-.05-.11-.03Z"/>
      <path class="cls-1" d="M7.97,20.33s-.12.08-.11.11.12.03.16.01.07-.06.05-.1-.06-.05-.11-.03Z"/>
      <path class="cls-1" d="M9.6,21.04s-.12.08-.11.11.12.03.16.01.07-.06.05-.1-.06-.05-.11-.03Z"/>
      <path class="cls-1" d="M8.8,20.87s-.12.08-.11.11.12.03.16.01.07-.06.05-.1-.06-.05-.11-.03Z"/>
      <path class="cls-1" d="M10.92,19.76s-.12.08-.11.11.12.03.16.01.07-.06.05-.1-.06-.05-.11-.03Z"/>
    </g>
    <ellipse class="cls-2" cx="7.79" cy="21.87" rx=".11" ry=".13" transform="translate(-15.34 19.96) rotate(-65.66)"/>
  </g>
  <path class="cls-2" d="M4.99,24.16s0,0,.01,0c.04-.06.24-.39.44-1.02.09.33.22.51.25.55,0,0,0,0,.01,0,.05-.04.31-.3.57-.88.07-.16.17-.51.17-.51,0,0,.11-.57-.01-.86l-.29-.71c-.11-.26-.36-.48-.5-.61s-.36-.28-.57-.37c-.57-.22-.92-.21-.98-.2,0,0,0,0,0,0,0,.05.03.26.17.55-.56-.3-.92-.37-.99-.38,0,0-.01,0-.01,0,0,.05.02.31.2.68,0,0,0,0,0,0-.61-.24-.99-.24-1.06-.23,0,0-.01,0,0,.01,0,.05.03.26.16.55-.04,0-.08-.02-.12-.03-.34-.05-.84.07-1.02.08,0,0,.18.16.25.31,0,.04-.29.05-.29.05l-.48.05s.09.19.29.38c-.54.16-.81.32-.86.36,0,0,0,0,0,0,.03.03.22.16.57.24-.47.22-.7.39-.74.42,0,0,0,0,0,0,.03.01.21.1.59.08.04,0,.09,0,.13,0-.47.2-.72.36-.76.39,0,0,0,0,0,0,.03.02.19.09.55.1-.4.27-.59.46-.62.5,0,0,0,0,0,0,.03.01.23.06.62-.01.04,0,.09-.02.13-.03-.12.2-.16.33-.18.36,0,0,0,0,0,0,.04,0,.25-.03.58-.24.05-.03.11-.07.16-.11-.12.47-.1.74-.09.79,0,0,0,0,0,0,.04-.01.28-.1.55-.38-.02.34.02.54.04.57,0,0,0,0,0,0,.04-.01.24-.1.47-.32,0,.24.05.38.07.41,0,0,0,0,.01,0,.05-.03.3-.2.63-.6-.03.35.04.56.05.6,0,0,0,0,.01,0,.05-.03.35-.25.73-.76.03-.03.05-.07.07-.11.11.3.24.47.27.51,0,0,0,0,.01,0,.05-.04.3-.29.54-.82.11.37.26.55.29.59Z"/>
  <path class="cls-2" d="M142.07,42.91s.01,0,.01,0c.04-.08.23-.52.37-1.4.15.48.33.76.37.82,0,0,.01,0,.02,0,.05-.06.31-.39.54-1.18.06-.22.13-.71.13-.71,0,0,.04-.8-.13-1.23l-.44-1.05c-.16-.39-.48-.74-.66-.94s-.45-.45-.71-.6c-.68-.39-1.09-.42-1.16-.43,0,0-.01,0,0,.01.01.07.07.38.27.8-.69-.5-1.11-.66-1.19-.68,0,0-.01,0-.01,0,0,.07.07.44.32.99,0,0,0,0,0,0-.74-.43-1.17-.47-1.25-.48,0,0-.01,0,0,.01.01.07.07.38.27.81-.05-.02-.09-.04-.14-.05-.4-.11-.97-.02-1.17-.03,0,0,.23.25.33.47,0,.05-.33.03-.33.03h-.54s.12.28.38.58c-.61.15-.89.35-.94.39,0,0,0,0,0,.01.04.04.27.25.69.43-.51.24-.76.46-.8.5,0,0,0,0,0,.01.04.03.26.17.69.2.05,0,.1,0,.15,0-.51.22-.78.41-.82.45,0,0,0,0,0,.01.03.03.24.16.64.22-.42.33-.62.58-.65.63,0,0,0,0,0,.01.04.02.28.12.71.06.05,0,.1-.01.15-.02-.1.27-.14.45-.15.49,0,0,0,.01,0,.01.04,0,.29-.01.64-.26.06-.04.11-.08.17-.13-.07.65-.01,1.04,0,1.11,0,0,0,.01,0,0,.05-.01.3-.11.59-.47.02.48.1.77.12.82,0,0,0,.01.01,0,.04-.02.26-.11.5-.39.04.34.11.55.13.6,0,0,0,0,.01,0,.05-.04.31-.25.64-.77.01.5.12.8.14.86,0,0,0,0,.01,0,.05-.04.36-.31.74-.98.03-.05.04-.09.06-.14.17.44.35.7.39.76,0,0,.01,0,.02,0,.05-.05.3-.37.51-1.1.18.54.38.83.42.88Z"/>
  <path class="cls-2" d="M149.22,40.13s0-.01-.01,0c-.09.02-.55.12-1.35.53.3-.41.42-.72.45-.78,0,0,0-.01,0-.01-.07,0-.5-.02-1.27.27-.22.08-.65.32-.65.32,0,0-.67.44-.91.83l-.59.97c-.22.36-.31.82-.37,1.08s-.1.63-.06.93c.09.78.3,1.13.34,1.19,0,0,0,0,.02,0,.05-.05.26-.28.49-.69,0,.85.13,1.29.15,1.37,0,0,0,.01.01,0,.05-.05.32-.32.61-.85,0,0,0,0,0,0,.09.85.31,1.23.36,1.29,0,0,.01,0,.02,0,.05-.05.26-.28.5-.69.01.05.02.1.04.15.14.38.56.79.67.96,0,0,.06-.33.19-.54.04-.04.22.25.22.25l.32.44s.15-.26.25-.65c.48.4.81.51.87.53,0,0,.01,0,.01,0,0-.06.04-.37-.06-.81.5.27.82.34.88.35,0,0,0,0,0,0,0-.04-.02-.31-.25-.67-.03-.04-.05-.08-.08-.12.48.29.79.38.85.4,0,0,.01,0,.01,0,0-.04,0-.29-.2-.65.52.14.83.15.89.15,0,0,0,0,0,0,0-.04-.07-.3-.37-.61-.03-.04-.07-.07-.11-.11.28-.08.45-.15.49-.17,0,0,0,0,0,0-.02-.03-.18-.22-.59-.36-.07-.02-.13-.04-.2-.06.57-.33.85-.61.9-.66,0,0,0-.01,0-.01-.04-.03-.27-.18-.72-.2.38-.3.56-.54.59-.58,0,0,0-.01,0-.01-.04-.02-.24-.15-.61-.17.25-.23.38-.42.4-.46,0,0,0-.01,0-.01-.06-.02-.39-.11-1-.07.39-.31.58-.57.61-.63,0,0,0-.01,0-.01-.07-.02-.46-.11-1.23-.02-.05,0-.1.02-.15.03.25-.4.36-.7.39-.76,0,0,0-.01,0-.01-.07,0-.47-.03-1.19.24.33-.47.44-.79.47-.86Z"/>
  <path class="cls-2" d="M148.43,48.78s0-.01-.01,0c-.09.02-.55.12-1.35.53.3-.41.42-.72.45-.78,0,0,0-.01,0-.01-.07,0-.5-.02-1.27.27-.22.08-.65.32-.65.32,0,0-.67.44-.91.83l-.59.97c-.22.36-.31.82-.37,1.08s-.1.63-.06.93c.09.78.3,1.13.34,1.19,0,0,0,0,.02,0,.05-.05.26-.28.49-.69,0,.85.13,1.29.15,1.37,0,0,0,.01.01,0,.05-.05.32-.32.61-.85,0,0,0,0,0,0,.09.85.31,1.23.36,1.29,0,0,.01,0,.02,0,.05-.05.26-.28.5-.69.01.05.02.1.04.15.14.38.56.79.67.96,0,0,.06-.33.19-.54.04-.04.22.25.22.25l.32.44s.15-.26.25-.65c.48.4.81.51.87.53,0,0,.01,0,.01,0,0-.06.04-.37-.06-.81.5.27.82.34.88.35,0,0,0,0,0,0,0-.04-.02-.31-.25-.67-.03-.04-.05-.08-.08-.12.48.29.79.38.85.4,0,0,.01,0,.01,0,0-.04,0-.29-.2-.65.52.14.83.15.89.15,0,0,0,0,0,0,0-.04-.07-.3-.37-.61-.03-.04-.07-.07-.11-.11.28-.08.45-.15.49-.17,0,0,0,0,0,0-.02-.03-.18-.22-.59-.36-.07-.02-.13-.04-.2-.06.57-.33.85-.61.9-.66,0,0,0-.01,0-.01-.04-.03-.27-.18-.72-.2.38-.3.56-.54.59-.58,0,0,0-.01,0-.01-.04-.02-.24-.15-.61-.17.25-.23.38-.42.4-.46,0,0,0-.01,0-.01-.06-.02-.39-.11-1-.07.39-.31.58-.57.61-.63,0,0,0-.01,0-.01-.07-.02-.46-.11-1.23-.02-.05,0-.1.02-.15.03.25-.4.36-.7.39-.76,0,0,0-.01,0-.01-.07,0-.47-.03-1.19.24.33-.47.44-.79.47-.86Z"/>
  <path class="cls-2" d="M147.34,55.16s0,0,0-.01c-.04-.07-.3-.48-.96-1.08.48.14.82.15.89.15,0,0,.01,0,0-.01-.02-.07-.15-.48-.69-1.1-.15-.17-.52-.5-.52-.5,0,0-.64-.48-1.1-.57l-1.12-.22c-.42-.08-.88-.01-1.14.03s-.62.13-.89.26c-.7.35-.95.67-.99.73,0,0,0,.01,0,.01.06.03.36.15.82.22-.8.3-1.16.56-1.23.62,0,0,0,.01,0,.01.06.03.41.19,1.01.28,0,0,0,0,0,0-.77.38-1.04.72-1.09.78,0,0,0,.01,0,.02.06.03.36.15.82.23-.04.03-.09.06-.13.09-.31.27-.55.79-.67.96,0,0,.33-.06.58,0,.05.03-.15.3-.15.3l-.3.45s.3.05.7,0c-.21.59-.2.94-.2,1,0,0,0,0,.01,0,.06-.01.36-.09.74-.34-.08.56-.03.89-.02.94,0,0,0,0,0,0,.04-.02.28-.13.55-.47.03-.04.06-.08.09-.12-.1.55-.09.87-.08.93,0,0,0,0,0,0,.04-.01.26-.11.54-.42.04.53.14.83.17.89,0,0,0,0,0,0,.04-.02.25-.16.44-.55.02-.04.04-.09.06-.14.17.24.29.37.32.4,0,0,0,0,.01,0,.02-.03.15-.25.13-.68,0-.07,0-.14-.02-.21.5.42.86.59.93.62,0,0,.01,0,.01,0,.01-.05.08-.31-.07-.75.41.25.7.34.75.36,0,0,.01,0,.01,0,.01-.04.05-.28-.05-.63.31.16.52.21.57.22,0,0,.01,0,.01,0,0-.06-.03-.4-.28-.96.42.26.74.34.8.36,0,0,.01,0,.01,0,0-.07-.05-.47-.41-1.16-.02-.05-.05-.09-.08-.13.46.1.78.1.85.1,0,0,.01,0,.01-.01-.02-.07-.14-.45-.64-1.04.55.15.9.14.96.14Z"/>
  <path class="cls-4" d="M111.78,1.97s-4.64.48-5.02-.79c-.38-1.27,1.27-1.26,1.77-.67.32.38.55,1.24-.64,1.68-.88.32-2.02-.24-2.02-.24"/>
  <path class="cls-4" d="M139.67,63.14s3.04-3.54,2.2-4.58-1.76.33-1.55,1.07c.13.48.71,1.16,1.75.43.77-.54.95-1.8.95-1.8"/>
  <g>
    <path class="cls-6" d="M106.7,2.12c-.99-1.09-3.14-.94-3.93.54s-1.3,3.35-.34,4.25,4.05-.88,4.73-1.67.53-2.02-.46-3.12Z"/>
    <path class="cls-5" d="M108.16,3.41l-.78-.4c-.11-.06-.24.03-.23.16l.05.51s-.06.07-.08.03l-.57-.88s-.08-.06-.12-.05l-.79.17s-.07-.04-.05-.07l.3-.47c.08-.12.13-.15.05-.19l-.9-.44c-.07-.04-.03-.14.05-.13l.73.13s.06-.03.05-.06l-.46-.78s.03-.09.07-.05l.73.64c.1.09.26.07.34-.03l.28-.37s.07-.02.08.02l.1.71c.02.11.1.2.21.22l.87.19c.06.01.06.1,0,.11l-.64.18s-.04.05-.02.07l.8.74s0,.09-.05.07Z"/>
    <g class="cls-3">
      <path class="cls-1" d="M103.63,2.57s.13-.16.1-.2-.18.01-.22.06-.06.11-.02.15.1.03.15-.01Z"/>
      <path class="cls-1" d="M103.37,3.44s.13-.16.1-.2-.18.01-.22.06-.06.11-.02.15.1.03.15-.01Z"/>
      <path class="cls-1" d="M104.29,3.31s.13-.16.1-.2-.18.01-.22.06-.06.11-.02.15.1.03.15-.01Z"/>
    </g>
    <g class="cls-3">
      <path class="cls-1" d="M102.89,4.89s.13-.16.1-.2-.18.01-.22.06-.06.11-.02.15.1.03.15-.01Z"/>
      <path class="cls-1" d="M102.64,5.76s.13-.16.1-.2-.18.01-.22.06-.06.11-.02.15.1.03.15-.01Z"/>
      <path class="cls-1" d="M103.56,5.63s.13-.16.1-.2-.18.01-.22.06-.06.11-.02.15.1.03.15-.01Z"/>
    </g>
    <g class="cls-3">
      <path class="cls-1" d="M104.99,5.14s.13-.16.1-.2-.18.01-.22.06-.06.11-.02.15.1.03.15-.01Z"/>
      <path class="cls-1" d="M105.9,5.02s.13-.16.1-.2-.18.01-.22.06-.06.11-.02.15.1.03.15-.01Z"/>
    </g>
    <g class="cls-3">
      <path class="cls-1" d="M105.01,5.9s.13-.16.1-.2-.18.01-.22.06-.06.11-.02.15.1.03.15-.01Z"/>
      <path class="cls-1" d="M103.93,4.73s.13-.16.1-.2-.18.01-.22.06-.06.11-.02.15.1.03.15-.01Z"/>
      <path class="cls-1" d="M102.67,4.23s.13-.16.1-.2-.18.01-.22.06-.06.11-.02.15.1.03.15-.01Z"/>
      <path class="cls-1" d="M107.15,4.45s.13-.16.1-.2-.18.01-.22.06-.06.11-.02.15.1.03.15-.01Z"/>
      <path class="cls-1" d="M104.66,4.23s.13-.16.1-.2-.18.01-.22.06-.06.11-.02.15.1.03.15-.01Z"/>
      <path class="cls-1" d="M105.81,4.1s.13-.16.1-.2-.18.01-.22.06-.06.11-.02.15.1.03.15-.01Z"/>
      <path class="cls-1" d="M103.47,6.52s.13-.16.1-.2-.18.01-.22.06-.06.11-.02.15.1.03.15-.01Z"/>
    </g>
    <ellipse class="cls-2" cx="106.7" cy="2.32" rx=".16" ry=".18" transform="translate(93.35 108.21) rotate(-84.06)"/>
  </g>
  <g>
    <path class="cls-2" d="M12.05,24.09c-1.4,0-2.7-.22-3.89-.65-1.2-.43-1.96-1.43-2.85-2.38-.24-.38-1.24-1.5-.76-1.82.14-.1,1.04.93,1.47,1.4.41.2.97,2.13,6.06,1.71.92-.08,1.78-.14,2.56-.41.78-.28,1.41-.7,1.88-1.27.47-.57.71-1.28.71-2.13,0-.75-.15-1.4-.46-1.95-.31-.55-.9-1.04-1.79-1.45s-2.21-.78-3.97-1.09c-3.87-.73-5.8-2.65-5.8-5.75,0-1.13.27-2.12.83-2.98.55-.86,1.32-1.53,2.31-2.01.99-.48,2.13-.73,3.44-.73,1.18,0,2.28.19,3.27.58,1,.39,1.93.92,2.8,1.61.49.45.5.89.03,1.3-.4.4-.84.39-1.33-.03-.73-.55-1.48-.97-2.25-1.24-.77-.28-1.62-.41-2.54-.41-1.34,0-2.45.33-3.33.99-.88.66-1.32,1.61-1.32,2.86,0,1.09.35,1.97,1.05,2.64.7.67,1.97,1.17,3.81,1.51,2.54.45,4.37,1.16,5.48,2.13,1.1.97,1.66,2.3,1.66,4,0,1.17-.31,2.17-.93,3.01-.62.84-1.47,1.48-2.53,1.92-1.07.45-2.26.67-3.58.67Z"/>
    <path class="cls-2" d="M24.2,23.74c-.61,0-.92-.33-.92-.98V3.98c0-.65.33-.98.98-.98h10.99c.67,0,1.01.28,1.01.86s-.34.86-1.01.86h-10.16v7.52h9.21c.65,0,.98.29.98.89s-.33.89-.98.89h-9.21v8.74c0,.65-.3.98-.89.98Z"/>
    <path class="cls-2" d="M40.51,23.74c-.61,0-.92-.33-.92-.98V3.98c0-.65.31-.98.92-.98s.89.33.89.98v8.11l9.36-8.47c.22-.26.42-.42.62-.5.2-.08.43-.12.71-.12.46,0,.73.13.81.4.09.27,0,.54-.25.81l-9.57,8.5,10.39,9.92c.22.26.29.52.21.78-.08.27-.34.4-.8.4-.33,0-.61-.06-.83-.18-.22-.12-.4-.27-.56-.44l-10.1-9.92v9.48c0,.65-.3.98-.89.98Z"/>
    <path class="cls-2" d="M62.99,24.06c-1.26,0-2.39-.32-3.38-.95-.99-.63-1.77-1.5-2.34-2.62-.57-1.12-.86-2.41-.86-3.87s.29-2.75.86-3.86c.57-1.12,1.35-1.99,2.34-2.62.99-.63,2.11-.95,3.38-.95s2.42.32,3.41.95c.99.63,1.77,1.51,2.34,2.62.57,1.11.86,2.4.86,3.86s-.28,2.75-.86,3.87-1.35,1.99-2.34,2.62c-.99.63-2.12.95-3.41.95ZM62.99,22.37c.93,0,1.75-.24,2.47-.71s1.29-1.14,1.7-2c.41-.86.62-1.87.62-3.04s-.21-2.18-.62-3.03c-.41-.86-.98-1.53-1.7-2-.72-.47-1.54-.71-2.47-.71-1.38,0-2.52.52-3.42,1.55s-1.35,2.43-1.35,4.19.45,3.13,1.35,4.18,2.04,1.57,3.42,1.57Z"/>
    <path class="cls-2" d="M78.03,24.06c-1.08,0-2.08-.18-2.98-.55-.9-.36-1.65-.88-2.27-1.55-.26-.22-.37-.44-.35-.67.02-.23.13-.43.33-.6.38-.32.81-.28,1.3.12.45.51,1.03.91,1.73,1.18.7.28,1.47.41,2.29.41.97,0,1.79-.21,2.47-.64s1.02-1.09,1.02-2c0-.81-.33-1.37-.98-1.69-.65-.32-1.65-.61-2.99-.89-.83-.18-1.61-.4-2.35-.65-.74-.26-1.34-.65-1.79-1.17-.46-.52-.68-1.25-.68-2.18,0-.85.23-1.57.7-2.16.46-.59,1.08-1.05,1.85-1.36.77-.31,1.59-.47,2.46-.47,1.94,0,3.41.6,4.41,1.81.28.2.41.4.41.62s-.1.41-.3.59c-.2.2-.4.28-.61.25-.21-.03-.43-.13-.67-.31-.73-.87-1.81-1.3-3.23-1.3-1.03,0-1.82.22-2.37.67-.55.45-.83.99-.83,1.64,0,.73.3,1.25.9,1.56s1.54.6,2.8.87c.89.2,1.72.44,2.5.74.78.3,1.41.71,1.88,1.24.47.54.71,1.27.71,2.22,0,1.26-.49,2.29-1.47,3.08-.98.79-2.28,1.18-3.92,1.18Z"/>
    <path class="cls-2" d="M87.66,23.74c-.61,0-.92-.33-.92-.98V3.33c0-.65.31-.98.92-.98s.89.33.89.98v8.23c.41-.67,1-1.23,1.76-1.69.76-.45,1.62-.68,2.59-.68,1.52,0,2.75.48,3.67,1.45s1.39,2.35,1.39,4.15v7.97c0,.65-.3.98-.89.98s-.89-.33-.89-.98v-7.7c0-1.38-.33-2.42-.99-3.11-.66-.69-1.52-1.04-2.56-1.04-.79,0-1.49.17-2.12.52-.62.34-1.11.81-1.45,1.39-.35.58-.52,1.23-.52,1.94v8c0,.65-.3.98-.89.98Z"/>
    <path class="cls-2" d="M103.77,23.74c-.59,0-.89-.33-.89-.98v-12.23c0-.65.3-.98.89-.98s.89.33.89.98v12.23c0,.65-.3.98-.89.98Z"/>
    <path class="cls-2" d="M115.08,30.13c-2.21,0-3.99-.76-5.33-2.28-.43-.49-.39-.92.15-1.27.41-.3.85-.22,1.3.24.95,1.07,2.24,1.6,3.88,1.6,1.46,0,2.58-.48,3.35-1.44.77-.96,1.15-2.4,1.15-4.31v-2.55c-.49.77-1.14,1.38-1.92,1.82-.79.44-1.69.67-2.69.67-1.21,0-2.28-.27-3.21-.83-.94-.55-1.68-1.33-2.22-2.34-.54-1-.81-2.19-.81-3.55s.27-2.54.81-3.54c.54-1,1.28-1.77,2.22-2.33s2.01-.83,3.21-.83c1.02,0,1.95.24,2.78.71.83.47,1.49,1.15,1.98,2.04v-1.57c0-.55.27-.83.8-.83s.83.33.83.98v12.14c0,2.57-.58,4.45-1.73,5.66-1.15,1.2-2.67,1.81-4.55,1.81ZM115.05,20.95c.89,0,1.68-.21,2.37-.64.69-.42,1.23-1.02,1.63-1.78.4-.76.59-1.64.59-2.65s-.2-1.88-.59-2.64c-.4-.75-.94-1.34-1.63-1.76-.69-.42-1.48-.64-2.37-.64s-1.64.21-2.32.64c-.68.42-1.22,1.01-1.61,1.76-.4.75-.59,1.63-.59,2.64s.2,1.89.59,2.65c.4.76.93,1.35,1.61,1.78.68.42,1.46.64,2.32.64Z"/>
    <path class="cls-2" d="M129.56,24c-1.38.02-2.5-.3-3.36-.95-.86-.65-1.29-1.6-1.29-2.84,0-.95.32-1.78.96-2.49.64-.71,1.46-1.27,2.46-1.67,1-.4,2.03-.61,3.1-.61,1.46,0,2.61.34,3.46,1.04v-2.43c0-1.32-.28-2.19-.83-2.59s-1.44-.61-2.67-.61c-.65,0-1.37.1-2.15.3-.78.2-1.48.45-2.12.77-.59.24-1.02.15-1.27-.27-.29-.51-.14-.91.47-1.19.73-.37,1.55-.68,2.47-.92.92-.24,1.78-.35,2.59-.35,1.8,0,3.12.34,3.97,1.04s1.27,1.96,1.27,3.82v7.85c0,.26.05.41.15.47s.31.09.62.09c.26,0,.47.04.65.13s.27.23.27.43c0,.49-.25.78-.74.86-.16.04-.33.07-.5.09-.18.02-.35.03-.5.03-.67,0-1.11-.14-1.3-.41-.2-.28-.32-.8-.35-1.57-.61.67-1.42,1.16-2.43,1.48s-1.98.48-2.93.5ZM129.65,22.37c.95-.02,1.83-.17,2.65-.44.82-.28,1.47-.68,1.95-1.2s.71-1.16.67-1.91c-.06-.61-.4-1.07-1.01-1.38s-1.4-.45-2.37-.43c-.81,0-1.59.14-2.34.41s-1.36.66-1.82,1.14c-.46.48-.7,1.04-.7,1.67,0,.73.28,1.27.83,1.61.55.34,1.26.52,2.13.52Z"/>
    <path class="cls-2" d="M159.68,24c-1.38.02-2.5-.3-3.36-.95-.86-.65-1.29-1.6-1.29-2.84,0-.95.32-1.78.96-2.49.64-.71,1.46-1.27,2.46-1.67,1-.4,2.03-.61,3.1-.61,1.46,0,2.61.34,3.46,1.04v-2.43c0-1.32-.28-2.19-.83-2.59s-1.44-.61-2.67-.61c-.65,0-1.37.1-2.15.3-.78.2-1.48.45-2.12.77-.59.24-1.02.15-1.27-.27-.29-.51-.14-.91.47-1.19.73-.37,1.55-.68,2.47-.92.92-.24,1.78-.35,2.59-.35,1.8,0,3.12.34,3.97,1.04s1.27,1.96,1.27,3.82v7.85c0,.26.05.41.15.47s.31.09.62.09c.26,0,.47.04.65.13s.27.23.27.43c0,.49-.25.78-.74.86-.16.04-.33.07-.5.09-.18.02-.35.03-.5.03-.67,0-1.11-.14-1.3-.41-.2-.28-.32-.8-.35-1.57-.61.67-1.42,1.16-2.43,1.48s-1.98.48-2.93.5ZM159.77,22.37c.95-.02,1.83-.17,2.65-.44.82-.28,1.47-.68,1.95-1.2s.71-1.16.67-1.91c-.06-.61-.4-1.07-1.01-1.38s-1.4-.45-2.37-.43c-.81,0-1.59.14-2.34.41s-1.36.66-1.82,1.14c-.46.48-.7,1.04-.7,1.67,0,.73.28,1.27.83,1.61.55.34,1.26.52,2.13.52Z"/>
  </g>
  <path class="cls-2" d="M146.52,26.66c-.2,1.17-.6,3.89-.85,4.97s-.98,19.49-1.04,18.54v6.07s-.93.31-1.02,1.76c0,0,.63-20.22.82-26.4.03-1.12.18-2.23.45-3.32h0s1.24-4.96,1.24-4.96c.11-.96-5.12-12.64-5.12-12.64-.13-.31-.15-.58-.06-.78.1-.2.29-.3.57-.3h.09c.53,0,.91.24,1.12.74l4.24,10.81,4.08-10.78c.19-.51.54-.77,1.1-.77.32,0,.53.1.65.3.13.2.13.47,0,.78"/>
  <g>
    <path class="cls-6" d="M143.56,44.69c-.99-1.09-3.14-.94-3.93.54s-1.3,3.35-.34,4.25,4.05-.88,4.73-1.67.53-2.02-.46-3.12Z"/>
    <path class="cls-5" d="M145.02,45.98l-.78-.4c-.11-.06-.24.03-.23.16l.05.51s-.06.07-.08.03l-.57-.88s-.08-.06-.12-.05l-.79.17s-.07-.04-.05-.07l.3-.47c.08-.12.13-.15.05-.19l-.9-.44c-.07-.04-.03-.14.05-.13l.73.13s.06-.03.05-.06l-.46-.78s.03-.09.07-.05l.73.64c.1.09.26.07.34-.03l.28-.37s.07-.02.08.02l.1.71c.02.11.1.2.21.22l.87.19c.06.01.06.1,0,.11l-.64.18s-.04.05-.02.07l.8.74s0,.09-.05.07Z"/>
    <g class="cls-3">
      <path class="cls-1" d="M140.49,45.13s.13-.16.1-.2-.18.01-.22.06-.06.11-.02.15.1.03.15-.01Z"/>
      <path class="cls-1" d="M140.24,46s.13-.16.1-.2-.18.01-.22.06-.06.11-.02.15.1.03.15-.01Z"/>
      <path class="cls-1" d="M141.15,45.88s.13-.16.1-.2-.18.01-.22.06-.06.11-.02.15.1.03.15-.01Z"/>
    </g>
    <g class="cls-3">
      <path class="cls-1" d="M139.75,47.46s.13-.16.1-.2-.18.01-.22.06-.06.11-.02.15.1.03.15-.01Z"/>
      <path class="cls-1" d="M139.5,48.32s.13-.16.1-.2-.18.01-.22.06-.06.11-.02.15.1.03.15-.01Z"/>
      <path class="cls-1" d="M140.42,48.2s.13-.16.1-.2-.18.01-.22.06-.06.11-.02.15.1.03.15-.01Z"/>
    </g>
    <g class="cls-3">
      <path class="cls-1" d="M141.85,47.71s.13-.16.1-.2-.18.01-.22.06-.06.11-.02.15.1.03.15-.01Z"/>
      <path class="cls-1" d="M142.76,47.58s.13-.16.1-.2-.18.01-.22.06-.06.11-.02.15.1.03.15-.01Z"/>
    </g>
    <g class="cls-3">
      <path class="cls-1" d="M141.87,48.47s.13-.16.1-.2-.18.01-.22.06-.06.11-.02.15.1.03.15-.01Z"/>
      <path class="cls-1" d="M140.79,47.29s.13-.16.1-.2-.18.01-.22.06-.06.11-.02.15.1.03.15-.01Z"/>
      <path class="cls-1" d="M139.54,46.79s.13-.16.1-.2-.18.01-.22.06-.06.11-.02.15.1.03.15-.01Z"/>
      <path class="cls-1" d="M144.01,47.01s.13-.16.1-.2-.18.01-.22.06-.06.11-.02.15.1.03.15-.01Z"/>
      <path class="cls-1" d="M141.52,46.79s.13-.16.1-.2-.18.01-.22.06-.06.11-.02.15.1.03.15-.01Z"/>
      <path class="cls-1" d="M142.67,46.67s.13-.16.1-.2-.18.01-.22.06-.06.11-.02.15.1.03.15-.01Z"/>
      <path class="cls-1" d="M140.33,49.09s.13-.16.1-.2-.18.01-.22.06-.06.11-.02.15.1.03.15-.01Z"/>
    </g>
    <ellipse class="cls-2" cx="143.57" cy="44.88" rx=".16" ry=".18" transform="translate(84.06 183.03) rotate(-84.06)"/>
  </g>
  <g>
    <path class="cls-6" d="M143.35,40.84c-.51-1.04-2.17-1.39-3.08-.45s-1.71,2.25-1.18,3.14,3.25.21,3.94-.24.84-1.41.32-2.45Z"/>
    <path class="cls-5" d="M144.18,42.13l-.51-.47c-.07-.07-.19-.03-.21.07l-.08.4s-.06.04-.07,0l-.24-.79s-.04-.06-.08-.07l-.64-.04s-.05-.04-.02-.06l.33-.29c.09-.08.13-.09.08-.14l-.58-.53s0-.12.06-.09l.52.26s.06-.01.05-.04l-.18-.69s.04-.06.06-.03l.41.64c.06.09.18.11.26.05l.3-.22s.06,0,.05.03l-.07.56c-.01.09.03.17.11.21l.61.33s.03.08-.02.08h-.52s-.04.02-.03.05l.44.73s-.02.07-.05.04Z"/>
    <g class="cls-3">
      <path class="cls-1" d="M140.93,40.51s.13-.09.12-.13-.14-.03-.18,0-.07.07-.05.11.07.05.12.03Z"/>
      <path class="cls-1" d="M140.55,41.11s.13-.09.12-.13-.14-.03-.18,0-.07.07-.05.11.07.05.12.03Z"/>
      <path class="cls-1" d="M141.27,41.22s.13-.09.12-.13-.14-.03-.18,0-.07.07-.05.11.07.05.12.03Z"/>
    </g>
    <g class="cls-3">
      <path class="cls-1" d="M139.88,42.11s.13-.09.12-.13-.14-.03-.18,0-.07.07-.05.11.07.05.12.03Z"/>
      <path class="cls-1" d="M139.5,42.71s.13-.09.12-.13-.14-.03-.18,0-.07.07-.05.11.07.05.12.03Z"/>
      <path class="cls-1" d="M140.22,42.81s.13-.09.12-.13-.14-.03-.18,0-.07.07-.05.11.07.05.12.03Z"/>
    </g>
    <g class="cls-3">
      <path class="cls-1" d="M141.4,42.75s.13-.09.12-.13-.14-.03-.18,0-.07.07-.05.11.07.05.12.03Z"/>
      <path class="cls-1" d="M142.12,42.85s.13-.09.12-.13-.14-.03-.18,0-.07.07-.05.11.07.05.12.03Z"/>
    </g>
    <g class="cls-3">
      <path class="cls-1" d="M141.25,43.33s.13-.09.12-.13-.14-.03-.18,0-.07.07-.05.11.07.05.12.03Z"/>
      <path class="cls-1" d="M140.69,42.21s.13-.09.12-.13-.14-.03-.18,0-.07.07-.05.11.07.05.12.03Z"/>
      <path class="cls-1" d="M139.86,41.56s.13-.09.12-.13-.14-.03-.18,0-.07.07-.05.11.07.05.12.03Z"/>
      <path class="cls-1" d="M143.19,42.7s.13-.09.12-.13-.14-.03-.18,0-.07.07-.05.11.07.05.12.03Z"/>
      <path class="cls-1" d="M141.36,41.99s.13-.09.12-.13-.14-.03-.18,0-.07.07-.05.11.07.05.12.03Z"/>
      <path class="cls-1" d="M142.25,42.14s.13-.09.12-.13-.14-.03-.18,0-.07.07-.05.11.07.05.12.03Z"/>
      <path class="cls-1" d="M139.96,43.46s.13-.09.12-.13-.14-.03-.18,0-.07.07-.05.11.07.05.12.03Z"/>
    </g>
    <ellipse class="cls-2" cx="143.31" cy="40.99" rx=".13" ry=".14" transform="translate(51.76 158.62) rotate(-68.07)"/>
  </g>
  <g>
    <path class="cls-6" d="M147.23,53.59c-.46.62-.17,1.66.66,1.87s1.85.24,2.22-.35-.86-1.88-1.33-2.13-1.09-.02-1.56.61Z"/>
    <path class="cls-5" d="M147.75,52.71l-.13.43c-.02.06.04.11.1.09l.26-.08s.04.02.02.04l-.4.39s-.02.04-.01.07l.17.37s-.01.04-.03.03l-.27-.09c-.07-.02-.09-.04-.1,0l-.14.49s-.07.03-.07,0v-.38s-.03-.03-.04-.01l-.36.32s-.05,0-.03-.03l.26-.44c.04-.06.01-.14-.05-.16l-.22-.09s-.02-.03,0-.04l.35-.14c.06-.02.09-.07.09-.13v-.45s.06-.04.07-.01l.15.29s.03.01.04,0l.3-.48s.05,0,.04.02Z"/>
    <g class="cls-3">
      <path class="cls-1" d="M147.77,55.05s-.1-.04-.11-.02.02.08.05.1.06.02.08,0,0-.06-.02-.07Z"/>
      <path class="cls-1" d="M148.24,55.07s-.1-.04-.11-.02.02.08.05.1.06.02.08,0,0-.06-.02-.07Z"/>
      <path class="cls-1" d="M148.08,54.63s-.1-.04-.11-.02.02.08.05.1.06.02.08,0,0-.06-.02-.07Z"/>
    </g>
    <g class="cls-3">
      <path class="cls-1" d="M149.03,55.12s-.1-.04-.11-.02.02.08.05.1.06.02.08,0,0-.06-.02-.07Z"/>
      <path class="cls-1" d="M149.51,55.14s-.1-.04-.11-.02.02.08.05.1.06.02.08,0,0-.06-.02-.07Z"/>
      <path class="cls-1" d="M149.35,54.71s-.1-.04-.11-.02.02.08.05.1.06.02.08,0,0-.06-.02-.07Z"/>
    </g>
    <g class="cls-3">
      <path class="cls-1" d="M148.96,54.07s-.1-.04-.11-.02.02.08.05.1.06.02.08,0,0-.06-.02-.07Z"/>
      <path class="cls-1" d="M148.8,53.63s-.1-.04-.11-.02.02.08.05.1.06.02.08,0,0-.06-.02-.07Z"/>
    </g>
    <g class="cls-3">
      <path class="cls-1" d="M149.35,53.96s-.1-.04-.11-.02.02.08.05.1.06.02.08,0,0-.06-.02-.07Z"/>
      <path class="cls-1" d="M148.85,54.63s-.1-.04-.11-.02.02.08.05.1.06.02.08,0,0-.06-.02-.07Z"/>
      <path class="cls-1" d="M148.71,55.31s-.1-.04-.11-.02.02.08.05.1.06.02.08,0,0-.06-.02-.07Z"/>
      <path class="cls-1" d="M148.39,53.08s-.1-.04-.11-.02.02.08.05.1.06.02.08,0,0-.06-.02-.07Z"/>
      <path class="cls-1" d="M148.52,54.34s-.1-.04-.11-.02.02.08.05.1.06.02.08,0,0-.06-.02-.07Z"/>
      <path class="cls-1" d="M148.34,53.79s-.1-.04-.11-.02.02.08.05.1.06.02.08,0,0-.06-.02-.07Z"/>
      <path class="cls-1" d="M149.82,54.64s-.1-.04-.11-.02.02.08.05.1.06.02.08,0,0-.06-.02-.07Z"/>
    </g>
    <ellipse class="cls-2" cx="147.33" cy="53.56" rx=".09" ry=".08" transform="translate(57.81 182.25) rotate(-75.15)"/>
  </g>
  <g>
    <path class="cls-6" d="M145.19,53.48c-.88-.65-2.33-.23-2.62.95s-.31,2.6.51,3.12,2.64-1.22,2.97-1.89.01-1.54-.87-2.18Z"/>
    <path class="cls-5" d="M146.42,54.2l-.61-.18c-.09-.02-.16.06-.13.15l.12.36s-.03.06-.05.03l-.54-.55s-.06-.03-.09-.02l-.52.24s-.06-.02-.05-.04l.12-.38c.03-.1.06-.13,0-.15l-.7-.19c-.05-.02-.05-.1,0-.1h.53s.04-.04.02-.06l-.46-.5s0-.07.04-.05l.62.36c.09.05.19.02.23-.07l.13-.31s.05-.02.06,0l.2.5c.03.08.1.13.18.13h.63s.06.07.02.09l-.41.22s-.02.04,0,.06l.68.42s.01.07-.02.06Z"/>
    <g class="cls-3">
      <path class="cls-1" d="M143.15,54.25s.06-.13.03-.16-.12.03-.15.07-.02.09,0,.11.08,0,.1-.03Z"/>
      <path class="cls-1" d="M143.13,54.91s.06-.13.03-.16-.12.03-.15.07-.02.09,0,.11.08,0,.1-.03Z"/>
      <path class="cls-1" d="M143.74,54.69s.06-.13.03-.16-.12.03-.15.07-.02.09,0,.11.08,0,.1-.03Z"/>
    </g>
    <g class="cls-3">
      <path class="cls-1" d="M143.05,56.03s.06-.13.03-.16-.12.03-.15.07-.02.09,0,.11.08,0,.1-.03Z"/>
      <path class="cls-1" d="M143.03,56.69s.06-.13.03-.16-.12.03-.15.07-.02.09,0,.11.08,0,.1-.03Z"/>
      <path class="cls-1" d="M143.64,56.47s.06-.13.03-.16-.12.03-.15.07-.02.09,0,.11.08,0,.1-.03Z"/>
    </g>
    <g class="cls-3">
      <path class="cls-1" d="M144.54,55.91s.06-.13.03-.16-.12.03-.15.07-.02.09,0,.11.08,0,.1-.03Z"/>
      <path class="cls-1" d="M145.15,55.69s.06-.13.03-.16-.12.03-.15.07-.02.09,0,.11.08,0,.1-.03Z"/>
    </g>
    <g class="cls-3">
      <path class="cls-1" d="M144.68,56.45s.06-.13.03-.16-.12.03-.15.07-.02.09,0,.11.08,0,.1-.03Z"/>
      <path class="cls-1" d="M143.74,55.76s.06-.13.03-.16-.12.03-.15.07-.02.09,0,.11.08,0,.1-.03Z"/>
      <path class="cls-1" d="M142.78,55.58s.06-.13.03-.16-.12.03-.15.07-.02.09,0,.11.08,0,.1-.03Z"/>
      <path class="cls-1" d="M145.91,55.1s.06-.13.03-.16-.12.03-.15.07-.02.09,0,.11.08,0,.1-.03Z"/>
      <path class="cls-1" d="M144.15,55.29s.06-.13.03-.16-.12.03-.15.07-.02.09,0,.11.08,0,.1-.03Z"/>
      <path class="cls-1" d="M144.92,55.04s.06-.13.03-.16-.12.03-.15.07-.02.09,0,.11.08,0,.1-.03Z"/>
      <path class="cls-1" d="M143.73,57.12s.06-.13.03-.16-.12.03-.15.07-.02.09,0,.11.08,0,.1-.03Z"/>
    </g>
    <ellipse class="cls-2" cx="145.23" cy="53.62" rx=".12" ry=".13" transform="translate(57.05 180.86) rotate(-75.54)"/>
  </g>
  <g>
    <path class="cls-6" d="M6.77,21.85c-.74-.82-2.34-.7-2.93.4s-.97,2.49-.25,3.17,3.02-.66,3.53-1.25.4-1.51-.35-2.32Z"/>
    <path class="cls-5" d="M7.86,22.81l-.58-.3c-.08-.04-.18.02-.17.12l.03.38s-.04.05-.06.02l-.42-.66s-.06-.05-.09-.04l-.59.13s-.05-.03-.04-.05l.22-.35c.06-.09.09-.11.04-.14l-.67-.33c-.05-.03-.02-.11.03-.1l.55.1s.05-.02.03-.05l-.35-.58s.02-.07.05-.04l.54.48c.08.07.19.05.25-.03l.21-.28s.05-.01.06.01l.08.53c.01.08.07.15.16.17l.65.14s.05.07,0,.08l-.48.13s-.03.04-.01.05l.6.55s0,.07-.04.05Z"/>
    <g class="cls-3">
      <path class="cls-1" d="M4.48,22.19s.1-.12.07-.15-.13,0-.17.04-.05.08-.02.11.08.03.12,0Z"/>
      <path class="cls-1" d="M4.29,22.83s.1-.12.07-.15-.13,0-.17.04-.05.08-.02.11.08.03.12,0Z"/>
      <path class="cls-1" d="M4.97,22.74s.1-.12.07-.15-.13,0-.17.04-.05.08-.02.11.08.03.12,0Z"/>
    </g>
    <g class="cls-3">
      <path class="cls-1" d="M3.93,23.92s.1-.12.07-.15-.13,0-.17.04-.05.08-.02.11.08.03.12,0Z"/>
      <path class="cls-1" d="M3.74,24.56s.1-.12.07-.15-.13,0-.17.04-.05.08-.02.11.08.03.12,0Z"/>
      <path class="cls-1" d="M4.43,24.47s.1-.12.07-.15-.13,0-.17.04-.05.08-.02.11.08.03.12,0Z"/>
    </g>
    <g class="cls-3">
      <path class="cls-1" d="M5.49,24.1s.1-.12.07-.15-.13,0-.17.04-.05.08-.02.11.08.03.12,0Z"/>
      <path class="cls-1" d="M6.18,24.01s.1-.12.07-.15-.13,0-.17.04-.05.08-.02.11.08.03.12,0Z"/>
    </g>
    <g class="cls-3">
      <path class="cls-1" d="M5.51,24.67s.1-.12.07-.15-.13,0-.17.04-.05.08-.02.11.08.03.12,0Z"/>
      <path class="cls-1" d="M4.71,23.79s.1-.12.07-.15-.13,0-.17.04-.05.08-.02.11.08.03.12,0Z"/>
      <path class="cls-1" d="M3.77,23.42s.1-.12.07-.15-.13,0-.17.04-.05.08-.02.11.08.03.12,0Z"/>
      <path class="cls-1" d="M7.11,23.59s.1-.12.07-.15-.13,0-.17.04-.05.08-.02.11.08.03.12,0Z"/>
      <path class="cls-1" d="M5.25,23.42s.1-.12.07-.15-.13,0-.17.04-.05.08-.02.11.08.03.12,0Z"/>
      <path class="cls-1" d="M6.1,23.33s.1-.12.07-.15-.13,0-.17.04-.05.08-.02.11.08.03.12,0Z"/>
      <path class="cls-1" d="M4.36,25.13s.1-.12.07-.15-.13,0-.17.04-.05.08-.02.11.08.03.12,0Z"/>
    </g>
    <ellipse class="cls-2" cx="6.77" cy="22" rx=".12" ry=".13" transform="translate(-15.8 26.46) rotate(-84.06)"/>
  </g>
  <g>
    <path class="cls-6" d="M7.67,23.21c-1,.47-1.35,2.03-.47,2.92s2.1,1.66,2.96,1.17.25-3.08-.16-3.74-1.33-.82-2.32-.35Z"/>
    <path class="cls-5" d="M8.91,22.44l-.45.47c-.06.07-.03.18.06.2l.37.08s.03.05,0,.06l-.75.21s-.06.04-.06.08l-.05.6s-.04.04-.06.02l-.27-.32c-.07-.08-.08-.12-.13-.08l-.51.54s-.11,0-.08-.06l.25-.49s0-.05-.04-.05l-.66.16s-.06-.04-.02-.06l.61-.38c.09-.05.11-.17.05-.25l-.21-.28s0-.06.03-.05l.53.08c.08.01.16-.03.2-.1l.32-.58s.08-.02.08.02v.5s.01.04.03.03l.7-.41s.07.02.04.05Z"/>
    <g class="cls-3">
      <path class="cls-1" d="M7.32,25.5s-.09-.13-.12-.11-.03.13,0,.17.07.07.1.05.05-.07.03-.11Z"/>
      <path class="cls-1" d="M7.88,25.86s-.09-.13-.12-.11-.03.13,0,.17.07.07.1.05.05-.07.03-.11Z"/>
      <path class="cls-1" d="M7.99,25.18s-.09-.13-.12-.11-.03.13,0,.17.07.07.1.05.05-.07.03-.11Z"/>
    </g>
    <g class="cls-3">
      <path class="cls-1" d="M8.82,26.52s-.09-.13-.12-.11-.03.13,0,.17.07.07.1.05.05-.07.03-.11Z"/>
      <path class="cls-1" d="M9.38,26.89s-.09-.13-.12-.11-.03.13,0,.17.07.07.1.05.05-.07.03-.11Z"/>
      <path class="cls-1" d="M9.49,26.21s-.09-.13-.12-.11-.03.13,0,.17.07.07.1.05.05-.07.03-.11Z"/>
    </g>
    <g class="cls-3">
      <path class="cls-1" d="M9.45,25.08s-.09-.13-.12-.11-.03.13,0,.17.07.07.1.05.05-.07.03-.11Z"/>
      <path class="cls-1" d="M9.56,24.4s-.09-.13-.12-.11-.03.13,0,.17.07.07.1.05.05-.07.03-.11Z"/>
    </g>
    <g class="cls-3">
      <path class="cls-1" d="M9.99,25.24s-.09-.13-.12-.11-.03.13,0,.17.07.07.1.05.05-.07.03-.11Z"/>
      <path class="cls-1" d="M8.92,25.75s-.09-.13-.12-.11-.03.13,0,.17.07.07.1.05.05-.07.03-.11Z"/>
      <path class="cls-1" d="M8.29,26.53s-.09-.13-.12-.11-.03.13,0,.17.07.07.1.05.05-.07.03-.11Z"/>
      <path class="cls-1" d="M9.43,23.39s-.09-.13-.12-.11-.03.13,0,.17.07.07.1.05.05-.07.03-.11Z"/>
      <path class="cls-1" d="M8.73,25.12s-.09-.13-.12-.11-.03.13,0,.17.07.07.1.05.05-.07.03-.11Z"/>
      <path class="cls-1" d="M8.88,24.27s-.09-.13-.12-.11-.03.13,0,.17.07.07.1.05.05-.07.03-.11Z"/>
      <path class="cls-1" d="M10.1,26.47s-.09-.13-.12-.11-.03.13,0,.17.07.07.1.05.05-.07.03-.11Z"/>
    </g>
    <ellipse class="cls-2" cx="7.81" cy="23.24" rx=".13" ry=".12" transform="translate(-16.64 21.39) rotate(-67.1)"/>
  </g>
  <g>
    <path class="cls-6" d="M146.23,55.46c-1.01.54-1.28,2.11-.29,2.92s2.33,1.48,3.19.94.05-3.06-.44-3.68-1.45-.71-2.47-.17Z"/>
    <path class="cls-5" d="M147.48,54.61l-.45.5c-.06.07-.02.18.08.19l.4.05s.04.05,0,.06l-.77.26s-.06.04-.06.08v.6s-.05.05-.08.02l-.31-.29c-.08-.08-.1-.12-.14-.07l-.5.57s-.12,0-.09-.05l.23-.5s-.01-.05-.04-.04l-.68.21s-.06-.03-.03-.06l.62-.42c.09-.06.1-.17.03-.25l-.24-.27s0-.05.03-.05l.56.04c.09,0,.17-.04.21-.11l.3-.59s.08-.03.09.02l.02.49s.03.04.05.02l.71-.46s.07.02.05.05Z"/>
    <g class="cls-3">
      <path class="cls-1" d="M146.02,57.74s-.1-.12-.14-.1-.02.13,0,.17.08.06.11.04.05-.07.02-.11Z"/>
      <path class="cls-1" d="M146.64,58.07s-.1-.12-.14-.1-.02.13,0,.17.08.06.11.04.05-.07.02-.11Z"/>
      <path class="cls-1" d="M146.71,57.38s-.1-.12-.14-.1-.02.13,0,.17.08.06.11.04.05-.07.02-.11Z"/>
    </g>
    <g class="cls-3">
      <path class="cls-1" d="M147.67,58.65s-.1-.12-.14-.1-.02.13,0,.17.08.06.11.04.05-.07.02-.11Z"/>
      <path class="cls-1" d="M148.29,58.97s-.1-.12-.14-.1-.02.13,0,.17.08.06.11.04.05-.07.02-.11Z"/>
      <path class="cls-1" d="M148.35,58.29s-.1-.12-.14-.1-.02.13,0,.17.08.06.11.04.05-.07.02-.11Z"/>
    </g>
    <g class="cls-3">
      <path class="cls-1" d="M148.23,57.18s-.1-.12-.14-.1-.02.13,0,.17.08.06.11.04.05-.07.02-.11Z"/>
      <path class="cls-1" d="M148.3,56.5s-.1-.12-.14-.1-.02.13,0,.17.08.06.11.04.05-.07.02-.11Z"/>
    </g>
    <g class="cls-3">
      <path class="cls-1" d="M148.82,57.29s-.1-.12-.14-.1-.02.13,0,.17.08.06.11.04.05-.07.02-.11Z"/>
      <path class="cls-1" d="M147.73,57.88s-.1-.12-.14-.1-.02.13,0,.17.08.06.11.04.05-.07.02-.11Z"/>
      <path class="cls-1" d="M147.12,58.7s-.1-.12-.14-.1-.02.13,0,.17.08.06.11.04.05-.07.02-.11Z"/>
      <path class="cls-1" d="M148.09,55.51s-.1-.12-.14-.1-.02.13,0,.17.08.06.11.04.05-.07.02-.11Z"/>
      <path class="cls-1" d="M147.48,57.27s-.1-.12-.14-.1-.02.13,0,.17.08.06.11.04.05-.07.02-.11Z"/>
      <path class="cls-1" d="M147.58,56.42s-.1-.12-.14-.1-.02.13,0,.17.08.06.11.04.05-.07.02-.11Z"/>
      <path class="cls-1" d="M149.02,58.5s-.1-.12-.14-.1-.02.13,0,.17.08.06.11.04.05-.07.02-.11Z"/>
    </g>
    <ellipse class="cls-2" cx="146.38" cy="55.48" rx=".13" ry=".12" transform="translate(9.6 131.62) rotate(-49.86)"/>
  </g>
  <path class="cls-4" d="M5.01,19.91s-2.69-1.63-1.87-2.92,2.72.25,2.71,1.14c0,.58-.59,1.42-2.41.65-1.34-.57-2.92-1.4-2.92-1.4"/>
</svg>